<svg viewBox="0 0 240 240" xmlns:xlink="http://www.w3.org/1999/xlink" xmlns="http://www.w3.org/2000/svg"><defs><style>.a1bca9c9-1fee-4978-a4cf-a0e8987f03ea,.a538e94b-f8ea-4988-bb93-cf39383f32c2,.a63de530-73c5-4122-81c3-407907a143e2,.a9c53938-9700-46a0-b93c-d32ed05a1fb6,.b801cd28-d1f8-4e8f-a924-9f8d1e1f3849,.b8e90815-9efd-4ef8-b64d-0afb24351be6,.b968d50a-b790-429f-9d76-6e31d9a2174c,.bac4616e-aff4-4f7e-96aa-a592299f4dd8,.bda86f1e-c575-47b5-81c2-6a88f0468da2,.bec7ed7b-9d90-4207-9921-09ee249f2483,.e12caaa3-c3cc-43e0-b426-2b455afe5e58,.e3e3b3f2-c695-4702-a3cb-46ac1360f2be,.e9f607fa-19d3-49a7-a59f-fc0e73f3effb,.ebd823ac-b87b-40d8-b745-eabc12c47a57,.ecd1992c-4688-4b74-8550-6220a1ef08a3,.eef59924-5a9a-4b69-9a6f-38eaadcf7f85{fill:none;}.bf103a0e-65ec-483d-b71b-a57f3f0fc963{fill:#fff;}.a538e94b-f8ea-4988-bb93-cf39383f32c2,.a63de530-73c5-4122-81c3-407907a143e2,.a9c53938-9700-46a0-b93c-d32ed05a1fb6,.b801cd28-d1f8-4e8f-a924-9f8d1e1f3849,.b8e90815-9efd-4ef8-b64d-0afb24351be6,.b968d50a-b790-429f-9d76-6e31d9a2174c,.bac4616e-aff4-4f7e-96aa-a592299f4dd8,.bda86f1e-c575-47b5-81c2-6a88f0468da2,.bec7ed7b-9d90-4207-9921-09ee249f2483,.e12caaa3-c3cc-43e0-b426-2b455afe5e58,.e3e3b3f2-c695-4702-a3cb-46ac1360f2be,.e9f607fa-19d3-49a7-a59f-fc0e73f3effb,.ebd823ac-b87b-40d8-b745-eabc12c47a57,.ecd1992c-4688-4b74-8550-6220a1ef08a3,.eef59924-5a9a-4b69-9a6f-38eaadcf7f85{stroke:#16326f;}.a63de530-73c5-4122-81c3-407907a143e2,.b801cd28-d1f8-4e8f-a924-9f8d1e1f3849,.bda86f1e-c575-47b5-81c2-6a88f0468da2,.bec7ed7b-9d90-4207-9921-09ee249f2483,.e9f607fa-19d3-49a7-a59f-fc0e73f3effb,.ebd823ac-b87b-40d8-b745-eabc12c47a57,.eef59924-5a9a-4b69-9a6f-38eaadcf7f85{stroke-miterlimit:10;}.bec7ed7b-9d90-4207-9921-09ee249f2483{stroke-width:1.59px;}.a538e94b-f8ea-4988-bb93-cf39383f32c2,.a9c53938-9700-46a0-b93c-d32ed05a1fb6,.b8e90815-9efd-4ef8-b64d-0afb24351be6,.b968d50a-b790-429f-9d76-6e31d9a2174c,.bac4616e-aff4-4f7e-96aa-a592299f4dd8,.e12caaa3-c3cc-43e0-b426-2b455afe5e58,.e3e3b3f2-c695-4702-a3cb-46ac1360f2be,.ecd1992c-4688-4b74-8550-6220a1ef08a3{stroke-linecap:round;stroke-linejoin:round;}.b801cd28-d1f8-4e8f-a924-9f8d1e1f3849,.b968d50a-b790-429f-9d76-6e31d9a2174c{stroke-width:1.49px;}.b8e90815-9efd-4ef8-b64d-0afb24351be6{stroke-width:1.64px;}.e6512243-4603-41b0-bd50-e6f674cc8813{fill:#16326f;}.a63de530-73c5-4122-81c3-407907a143e2{stroke-width:1.46px;}.ebd823ac-b87b-40d8-b745-eabc12c47a57{stroke-width:1.48px;}.aa13da69-74cd-4cdb-9adf-39bc5d998d85{fill:#ececec;}.b0db99f1-fefd-48e0-9c47-2452cddd9643{fill:#2158c7;}.a538e94b-f8ea-4988-bb93-cf39383f32c2{stroke-width:1.09px;}.a2941b0e-6f9d-442b-aab4-9f1c9639f4ad{fill:#b2b2b2;}.a8440915-2c79-4291-8f09-b80a6c153d8e{clip-path:url(#fb4633af-a367-458a-b885-25be6b361ef5);}.ecd1992c-4688-4b74-8550-6220a1ef08a3,.eef59924-5a9a-4b69-9a6f-38eaadcf7f85{stroke-width:0.4px;}.bac4616e-aff4-4f7e-96aa-a592299f4dd8{stroke-width:2px;}.b30679ba-3674-4695-8de2-93e02403978d{clip-path:url(#b1a3a160-783f-4314-883b-cbb7af6618dd);}.fd672a53-ea70-4ba3-87fd-e41ec3512b77{clip-path:url(#af1b8371-f0f5-4a5f-839f-963b9ff25e68);}.ec1024a2-9045-49f6-9fc0-645d763fa591{clip-path:url(#ae243dd9-23f3-4d8a-a59d-3313746cc6b2);}.a9c53938-9700-46a0-b93c-d32ed05a1fb6{stroke-width:1.85px;}.bda86f1e-c575-47b5-81c2-6a88f0468da2{stroke-width:1.64px;}.e12caaa3-c3cc-43e0-b426-2b455afe5e58{stroke-width:1.5px;}</style><clipPath id="fb4633af-a367-458a-b885-25be6b361ef5"><polygon points="134 190.28 168 178.28 126.17 177.78 134 190.28" class="a1bca9c9-1fee-4978-a4cf-a0e8987f03ea"></polygon></clipPath><clipPath id="b1a3a160-783f-4314-883b-cbb7af6618dd"><rect height="9" width="6.22" y="100.28" x="93" class="a1bca9c9-1fee-4978-a4cf-a0e8987f03ea"></rect></clipPath><clipPath id="af1b8371-f0f5-4a5f-839f-963b9ff25e68"><rect height="9" width="6.22" y="100.28" x="135.83" class="a1bca9c9-1fee-4978-a4cf-a0e8987f03ea"></rect></clipPath><clipPath id="ae243dd9-23f3-4d8a-a59d-3313746cc6b2"><rect height="37.14" width="51.69" y="146.78" x="133.27" class="a1bca9c9-1fee-4978-a4cf-a0e8987f03ea"></rect></clipPath></defs><title>缺省页小爱</title><g id="ae649444-0b71-4369-9a8e-60919a8515ab"><path d="M196,174.28s3-22-9-41c-9.24-14.63-100.5,4.5-100.5,4.5l6.78,40Z" class="bf103a0e-65ec-483d-b71b-a57f3f0fc963"></path><path d="M196,174.28s3-22-9-41c-9.24-14.63-100.5,4.5-100.5,4.5l6.78,40Z" class="bec7ed7b-9d90-4207-9921-09ee249f2483"></path><path d="M113.22,145.11l-7.5,11-25.64-11" class="bf103a0e-65ec-483d-b71b-a57f3f0fc963"></path><path d="M113.22,145.11l-7.5,11-25.64-11" class="b968d50a-b790-429f-9d76-6e31d9a2174c"></path><polyline points="131.86 145.11 139.35 156.11 178.5 144.78" class="bf103a0e-65ec-483d-b71b-a57f3f0fc963"></polyline><polyline points="131.86 145.11 139.35 156.11 178.5 144.78" class="b968d50a-b790-429f-9d76-6e31d9a2174c"></polyline><path d="M114.66,154.78q-1.95,13.74-3.91,27.47l11.79,11.67,11.78-11.67-3.9-27.47" class="bf103a0e-65ec-483d-b71b-a57f3f0fc963"></path><path d="M114.66,154.78q-1.95,13.74-3.91,27.47l11.79,11.67,11.78-11.67-3.9-27.47" class="b801cd28-d1f8-4e8f-a924-9f8d1e1f3849"></path><path d="M131.86,145.11l-1.44,9.67H114.66l-1.44-9.67" class="bf103a0e-65ec-483d-b71b-a57f3f0fc963"></path><path d="M131.86,145.11l-1.44,9.67H114.66l-1.44-9.67" class="b968d50a-b790-429f-9d76-6e31d9a2174c"></path><rect height="47.5" width="240" y="170.78" class="bf103a0e-65ec-483d-b71b-a57f3f0fc963"></rect><line y2="170.78" x2="240" y1="170.78" class="e9f607fa-19d3-49a7-a59f-fc0e73f3effb"></line><path d="M181.31,56.14l12.46,14.12A5.33,5.33,0,0,1,195,73.61V131a5.67,5.67,0,0,1-2.63,4.63l-11.56,8Z" class="bf103a0e-65ec-483d-b71b-a57f3f0fc963"></path><path d="M181.31,56.14l12.46,14.12A5.33,5.33,0,0,1,195,73.61V131a5.67,5.67,0,0,1-2.63,4.63l-11.56,8Z" class="b8e90815-9efd-4ef8-b64d-0afb24351be6"></path><path d="M141.43,21.72a12.7,12.7,0,0,0-12.7,12.7h0a12.73,12.73,0,1,0-3.56,8.81V53.76h7.11V43.23a12.7,12.7,0,1,0,9.15-21.51M116,42.21a7.79,7.79,0,1,1,7.79-7.79A7.79,7.79,0,0,1,116,42.21m25.41,0a7.79,7.79,0,1,1,7.79-7.79,7.79,7.79,0,0,1-7.79,7.79" class="e6512243-4603-41b0-bd50-e6f674cc8813"></path><path d="M65.87,113.52H64.58a3.93,3.93,0,0,1-3.92-3.92v-21a3.93,3.93,0,0,1,3.92-3.92h1.29a3.94,3.94,0,0,1,3.92,3.92v21a3.94,3.94,0,0,1-3.92,3.92" class="bf103a0e-65ec-483d-b71b-a57f3f0fc963"></path><rect rx="3.92" height="28.87" width="9.13" y="84.65" x="60.66" class="b968d50a-b790-429f-9d76-6e31d9a2174c"></rect><path d="M58.83,104.81h0A1.83,1.83,0,0,1,57,103V95.18a1.83,1.83,0,0,1,3.65,0V103a1.83,1.83,0,0,1-1.83,1.82" class="bf103a0e-65ec-483d-b71b-a57f3f0fc963"></path><path d="M58.83,104.81h0A1.83,1.83,0,0,1,57,103V95.18a1.83,1.83,0,0,1,3.65,0V103A1.83,1.83,0,0,1,58.83,104.81Z" class="b968d50a-b790-429f-9d76-6e31d9a2174c"></path><rect rx="3.92" height="28.87" width="9.13" y="84.65" x="60.66" class="b968d50a-b790-429f-9d76-6e31d9a2174c"></rect><path d="M58.83,104.81h0A1.83,1.83,0,0,1,57,103V95.18a1.83,1.83,0,0,1,3.65,0V103A1.83,1.83,0,0,1,58.83,104.81Z" class="b968d50a-b790-429f-9d76-6e31d9a2174c"></path><path d="M139.43,21.72a12.7,12.7,0,0,0-12.7,12.7h0a12.73,12.73,0,1,0-3.56,8.81V53.76h7.11V43.23a12.7,12.7,0,1,0,9.15-21.51M114,42.21a7.79,7.79,0,1,1,7.79-7.79A7.79,7.79,0,0,1,114,42.21m25.41,0a7.79,7.79,0,1,1,7.79-7.79,7.79,7.79,0,0,1-7.79,7.79" class="bf103a0e-65ec-483d-b71b-a57f3f0fc963"></path><path d="M139.43,21.72a12.7,12.7,0,0,0-12.7,12.7h0a12.73,12.73,0,1,0-3.56,8.81V53.76h7.11V43.23a12.7,12.7,0,1,0,9.15-21.51ZM114,42.21a7.79,7.79,0,1,1,7.79-7.79A7.79,7.79,0,0,1,114,42.21Zm25.41,0a7.79,7.79,0,1,1,7.79-7.79A7.79,7.79,0,0,1,139.43,42.21Z" class="b968d50a-b790-429f-9d76-6e31d9a2174c"></path><path d="M151.12,97.09a1,1,0,0,1-2.09,0,1,1,0,1,1,2.09,0" class="bf103a0e-65ec-483d-b71b-a57f3f0fc963"></path><path d="M178.11,144.49H70.36A4.39,4.39,0,0,1,66,140.1v-82a4.4,4.4,0,0,1,4.38-4.39H178.11a4.4,4.4,0,0,1,4.39,4.39v82a4.4,4.4,0,0,1-4.39,4.39" class="bf103a0e-65ec-483d-b71b-a57f3f0fc963"></path><rect rx="4.39" height="90.81" width="116.52" y="53.68" x="65.98" class="a63de530-73c5-4122-81c3-407907a143e2"></rect><path d="M165.25,61.2l-49.72,8.37a2.7,2.7,0,0,1-1.06,0L78.75,61.2c-2-.39-3.75,1.4-3.75,3.74v68.29c0,2.34,1.79,4.13,3.75,3.74l35.72-8.34a2.7,2.7,0,0,1,1.06,0L165.25,137c2,.39,3.75-1.4,3.75-3.74V64.94c0-2.34-1.79-4.13-3.75-3.74" class="bf103a0e-65ec-483d-b71b-a57f3f0fc963"></path><path d="M165.25,61.2l-49.72,8.37a2.7,2.7,0,0,1-1.06,0L78.75,61.2c-2-.39-3.75,1.4-3.75,3.74v68.29c0,2.34,1.79,4.13,3.75,3.74l35.72-8.34a2.7,2.7,0,0,1,1.06,0L165.25,137c2,.39,3.75-1.4,3.75-3.74V64.94C169,62.6,167.21,60.81,165.25,61.2Z" class="ebd823ac-b87b-40d8-b745-eabc12c47a57"></path><path d="M192.59,113.52h1.28a3.93,3.93,0,0,0,3.92-3.92v-21a3.93,3.93,0,0,0-3.92-3.92h-1.28a3.94,3.94,0,0,0-3.93,3.92v21a3.94,3.94,0,0,0,3.93,3.92" class="bf103a0e-65ec-483d-b71b-a57f3f0fc963"></path><rect rx="3.92" height="28.87" width="9.13" y="84.65" x="188.66" class="b968d50a-b790-429f-9d76-6e31d9a2174c"></rect><path d="M196.62,104.81h0a1.83,1.83,0,0,0,1.82-1.82V95.18a1.83,1.83,0,0,0-3.65,0V103a1.83,1.83,0,0,0,1.83,1.82" class="bf103a0e-65ec-483d-b71b-a57f3f0fc963"></path><path d="M196.62,104.81h0a1.83,1.83,0,0,0,1.82-1.82V95.18a1.83,1.83,0,0,0-3.65,0V103A1.83,1.83,0,0,0,196.62,104.81Z" class="b968d50a-b790-429f-9d76-6e31d9a2174c"></path><path d="M95,104.37c0,1.48-3.9,2.67-8.72,2.67s-8.73-1.19-8.73-2.67,3.91-2.67,8.73-2.67S95,102.89,95,104.37" class="aa13da69-74cd-4cdb-9adf-39bc5d998d85"></path><path d="M156,104.37c0,1.48-3.9,2.67-8.72,2.67s-8.73-1.19-8.73-2.67,3.91-2.67,8.73-2.67,8.72,1.19,8.72,2.67" class="aa13da69-74cd-4cdb-9adf-39bc5d998d85"></path><path d="M138,102.28a12.45,12.45,0,0,0,2,3,6.59,6.59,0,0,0,1.34,1.13,12,12,0,0,0,1.63.87,4.1,4.1,0,0,1-1.91-.34,4.54,4.54,0,0,1-1.62-1.12,5.26,5.26,0,0,1-1.47-3.54" class="e6512243-4603-41b0-bd50-e6f674cc8813"></path><path d="M97,102.28a5.26,5.26,0,0,1-1.47,3.54,4.54,4.54,0,0,1-1.62,1.12,4.1,4.1,0,0,1-1.91.34,12.57,12.57,0,0,0,1.63-.87A6.59,6.59,0,0,0,95,105.28a12.45,12.45,0,0,0,2-3" class="e6512243-4603-41b0-bd50-e6f674cc8813"></path><path d="M147.34,94.62c0,4.79-2.33,8.67-5.21,8.67s-5.2-3.88-5.2-8.67,2.33-8.67,5.2-8.67,5.21,3.88,5.21,8.67" class="e6512243-4603-41b0-bd50-e6f674cc8813"></path><path d="M145.18,94.62c0,2.8-1.36,5.07-3.05,5.07s-3-2.27-3-5.07,1.36-5.08,3-5.08,3.05,2.27,3.05,5.08" class="b0db99f1-fefd-48e0-9c47-2452cddd9643"></path><path d="M98.52,94.62c0,4.79-2.33,8.67-5.2,8.67s-5.21-3.88-5.21-8.67S90.44,86,93.32,86s5.2,3.88,5.2,8.67" class="e6512243-4603-41b0-bd50-e6f674cc8813"></path><path d="M96.36,94.62c0,2.8-1.36,5.07-3,5.07s-3-2.27-3-5.07,1.36-5.08,3-5.08,3,2.27,3,5.08" class="b0db99f1-fefd-48e0-9c47-2452cddd9643"></path><polygon points="31 147.76 110.59 147.76 113.5 143.78 35.18 143.78 31 147.76" class="bf103a0e-65ec-483d-b71b-a57f3f0fc963"></polygon><polygon points="183.5 175.53 119.77 175.78 57.17 194.64 132.39 194.64 183.5 175.53" class="bf103a0e-65ec-483d-b71b-a57f3f0fc963"></polygon><polygon points="183.5 175.53 119.77 175.78 57.17 194.64 132.39 194.64 183.5 175.53" class="a538e94b-f8ea-4988-bb93-cf39383f32c2"></polygon><polygon points="134 190.28 168 178.28 126.17 177.78 134 190.28" class="a2941b0e-6f9d-442b-aab4-9f1c9639f4ad"></polygon><g class="a8440915-2c79-4291-8f09-b80a6c153d8e"><line y2="180.78" x2="117.5" y1="180.78" x1="164.5" class="ecd1992c-4688-4b74-8550-6220a1ef08a3"></line><line y2="183.78" x2="123.5" y1="183.78" x1="157.5" class="ecd1992c-4688-4b74-8550-6220a1ef08a3"></line><line y2="186.78" x2="124.5" y1="186.78" x1="146.5" class="eef59924-5a9a-4b69-9a6f-38eaadcf7f85"></line><line y2="176.78" x2="164.5" y1="188.65" x1="128.6" class="a2941b0e-6f9d-442b-aab4-9f1c9639f4ad"></line><line y2="176.78" x2="164.5" y1="188.65" x1="128.6" class="ecd1992c-4688-4b74-8550-6220a1ef08a3"></line><line y2="176.78" x2="153.5" y1="185.78" x1="125.5" class="a2941b0e-6f9d-442b-aab4-9f1c9639f4ad"></line><line y2="176.78" x2="153.5" y1="185.78" x1="125.5" class="ecd1992c-4688-4b74-8550-6220a1ef08a3"></line><line y2="176.69" x2="142.13" y1="182.78" x1="123.5" class="a2941b0e-6f9d-442b-aab4-9f1c9639f4ad"></line><line y2="176.69" x2="142.13" y1="182.78" x1="123.5" class="ecd1992c-4688-4b74-8550-6220a1ef08a3"></line></g><polygon points="134 190.28 168 178.28 126.17 177.78 134 190.28" class="e3e3b3f2-c695-4702-a3cb-46ac1360f2be"></polygon><polygon points="110.59 147.76 113.5 143.78 136.5 192.78 132.5 198.78 110.59 147.76" class="bf103a0e-65ec-483d-b71b-a57f3f0fc963"></polygon><polygon points="110.59 147.76 113.5 143.78 136.5 192.78 132.5 198.78 110.59 147.76" class="a538e94b-f8ea-4988-bb93-cf39383f32c2"></polygon><polygon points="57.17 194.64 58.17 198.91 132.39 198.91 132.39 194.64 57.17 194.64" class="bf103a0e-65ec-483d-b71b-a57f3f0fc963"></polygon><polygon points="57.17 194.64 58.17 198.91 132.39 198.91 132.39 194.64 57.17 194.64" class="a538e94b-f8ea-4988-bb93-cf39383f32c2"></polygon><polygon points="132.39 198.91 183.5 179.56 183.5 175.52 136.5 192.78 132.39 198.91" class="bf103a0e-65ec-483d-b71b-a57f3f0fc963"></polygon><polygon points="132.39 198.91 183.5 179.56 183.5 175.52 136.5 192.78 132.39 198.91" class="a538e94b-f8ea-4988-bb93-cf39383f32c2"></polygon><path d="M111,103.28h0a20.38,20.38,0,0,0,10.15.29l.85-.29" class="bac4616e-aff4-4f7e-96aa-a592299f4dd8"></path><polygon points="31 147.76 57.17 194.64 132.39 194.64 110.59 147.76 31 147.76" class="bf103a0e-65ec-483d-b71b-a57f3f0fc963"></polygon><polygon points="31 147.76 57.17 194.64 132.39 194.64 110.59 147.76 31 147.76" class="a538e94b-f8ea-4988-bb93-cf39383f32c2"></polygon><g class="b30679ba-3674-4695-8de2-93e02403978d"><path d="M99,100.28a7.63,7.63,0,0,1-1,5.87,6.49,6.49,0,0,1-2.2,2.13,6.68,6.68,0,0,1-1.38.65,11,11,0,0,1-1.46.35,14.16,14.16,0,0,0,2.51-1.48,7.61,7.61,0,0,0,1.9-2.06,9.35,9.35,0,0,0,1.14-2.58,13.63,13.63,0,0,0,.45-2.88" class="e6512243-4603-41b0-bd50-e6f674cc8813"></path></g><g class="fd672a53-ea70-4ba3-87fd-e41ec3512b77"><path d="M136.05,100.28a13.63,13.63,0,0,0,.45,2.88,9.35,9.35,0,0,0,1.14,2.58,7.61,7.61,0,0,0,1.9,2.06,14.16,14.16,0,0,0,2.51,1.48,10.69,10.69,0,0,1-1.46-.35,7,7,0,0,1-3.58-2.78,7.63,7.63,0,0,1-1-5.87" class="e6512243-4603-41b0-bd50-e6f674cc8813"></path></g><g class="ec1024a2-9045-49f6-9fc0-645d763fa591"><g class="ec1024a2-9045-49f6-9fc0-645d763fa591"><path d="M157,178a24.79,24.79,0,0,0-12.34-19.05c-22.11,14.08-7.18,29.57,3.86,23.69,2.43-1.28,5.33-2.92,8.48-4.64" class="bf103a0e-65ec-483d-b71b-a57f3f0fc963"></path><path d="M174.5,146.78s-6.14-.07-24.71,9.27c-1.89.95-3.59,1.92-5.12,2.89A24.78,24.78,0,0,1,157,178c7.79-4.23,17.1-9,24.48-10.21A20.1,20.1,0,0,0,185,164.7l-.41-11.58c-3.8-4-10.05-6.34-10.05-6.34" class="bf103a0e-65ec-483d-b71b-a57f3f0fc963"></path></g></g><path d="M174.5,146.78s-6.14-.07-24.71,9.27c-1.89.95-3.59,1.92-5.12,2.89-22.1,14.08-7.17,29.57,3.87,23.69,2.43-1.28,5.33-2.92,8.48-4.64,7.79-4.23,17.1-9,24.48-10.21" class="a9c53938-9700-46a0-b93c-d32ed05a1fb6"></path><path d="M157.08,179.32s0-.49-.06-1.33a24.78,24.78,0,0,0-12.35-19.05" class="bda86f1e-c575-47b5-81c2-6a88f0468da2"></path><line y2="176.53" x2="198.7" y1="177.15" x1="189.23" class="bf103a0e-65ec-483d-b71b-a57f3f0fc963"></line><line y2="176.53" x2="198.7" y1="177.15" x1="189.23" class="e12caaa3-c3cc-43e0-b426-2b455afe5e58"></line><line y2="183.02" x2="197.24" y1="180.33" x1="188.14" class="bf103a0e-65ec-483d-b71b-a57f3f0fc963"></line><line y2="183.02" x2="197.24" y1="180.33" x1="188.14" class="e12caaa3-c3cc-43e0-b426-2b455afe5e58"></line><polygon points="31.09 147.86 110.68 147.86 113.59 143.88 35.27 143.88 31.09 147.86" class="a538e94b-f8ea-4988-bb93-cf39383f32c2"></polygon></g></svg>