<svg viewBox="0 0 240 240" xmlns:xlink="http://www.w3.org/1999/xlink" xmlns="http://www.w3.org/2000/svg"><defs><style>.a50f1967-fb23-4c3a-8805-143c018c305e,.a8d6b97d-4301-4086-855f-7952c771ba37,.a938b96d-acee-46dd-8942-8912b481b19f,.aa5b4a69-33dd-4013-a7a3-c345d456634d,.ada7009f-7d55-474d-a74e-f8d53d47eb60,.af432c9e-18b0-4bd6-9386-d4d6287788d5,.b2ec86d7-d299-40d1-b002-48a3c4dfaeb4,.b871cdfc-aa40-4e82-b892-8c1f4a708ea0,.b9703544-ef4f-4b5e-b103-47cc839c36d6,.b9baa9aa-60aa-44b0-bb6d-1675866ee0b3,.bfe7b652-bdea-40bf-816a-c28a70816d1d,.ff37b42a-5922-4581-82e7-8760020d1686{fill:none;}.adfc0a44-209b-49c1-a980-8cca6efbeb16{fill:#fff;}.a50f1967-fb23-4c3a-8805-143c018c305e,.a8d6b97d-4301-4086-855f-7952c771ba37,.ada7009f-7d55-474d-a74e-f8d53d47eb60,.af432c9e-18b0-4bd6-9386-d4d6287788d5,.b2ec86d7-d299-40d1-b002-48a3c4dfaeb4,.b871cdfc-aa40-4e82-b892-8c1f4a708ea0,.b9703544-ef4f-4b5e-b103-47cc839c36d6,.b9baa9aa-60aa-44b0-bb6d-1675866ee0b3,.bfe7b652-bdea-40bf-816a-c28a70816d1d,.ff37b42a-5922-4581-82e7-8760020d1686{stroke:#16326f;}.a50f1967-fb23-4c3a-8805-143c018c305e,.b2ec86d7-d299-40d1-b002-48a3c4dfaeb4,.b871cdfc-aa40-4e82-b892-8c1f4a708ea0,.bfe7b652-bdea-40bf-816a-c28a70816d1d{stroke-linecap:round;stroke-linejoin:round;}.b9703544-ef4f-4b5e-b103-47cc839c36d6,.bfe7b652-bdea-40bf-816a-c28a70816d1d{stroke-width:1.49px;}.a8d6b97d-4301-4086-855f-7952c771ba37,.a938b96d-acee-46dd-8942-8912b481b19f,.ada7009f-7d55-474d-a74e-f8d53d47eb60,.af432c9e-18b0-4bd6-9386-d4d6287788d5,.b9703544-ef4f-4b5e-b103-47cc839c36d6,.b9baa9aa-60aa-44b0-bb6d-1675866ee0b3,.ff37b42a-5922-4581-82e7-8760020d1686{stroke-miterlimit:10;}.a8d6b97d-4301-4086-855f-7952c771ba37,.b2ec86d7-d299-40d1-b002-48a3c4dfaeb4{stroke-width:1.61px;}.ff37b42a-5922-4581-82e7-8760020d1686{stroke-width:1.43px;}.ada7009f-7d55-474d-a74e-f8d53d47eb60{stroke-width:1.35px;}.b9ae484f-fa37-4957-97b6-b14bff1509b2{clip-path:url(#b2a8df1c-a164-4e70-a0d9-45e1d18641a3);}.b8dfc210-89a8-49bf-8cb1-71ee48f4cc10{fill:#ececec;}.b34a3baf-d2f9-434b-85c6-929687842642{clip-path:url(#a42bb52e-a220-41b1-9cc3-bb3bde943c53);}.b02edf76-7e4a-4d06-9f94-e87c1dc47dcf{clip-path:url(#b0314757-0941-473b-a3a7-71cc63ea1018);}.a938b96d-acee-46dd-8942-8912b481b19f{stroke:#17326f;stroke-width:1.59px;}.be1e840f-6c64-490e-95b4-a7df838244b9{fill:#4cade2;}.b871cdfc-aa40-4e82-b892-8c1f4a708ea0{stroke-width:1.5px;}.a231a47d-7164-436f-9a13-2f7268faf083{fill:#16326f;}.a17ebb36-d1ee-4e30-90f5-55aa5e3053e8{fill:#fbfcfc;}.a50f1967-fb23-4c3a-8805-143c018c305e{stroke-width:2px;}.afda970e-1dd1-4717-aa75-e128fae99013{clip-path:url(#f1a86953-a852-4a15-adf5-dc544bd17c55);}.b9baa9aa-60aa-44b0-bb6d-1675866ee0b3{stroke-width:0.8px;}.af432c9e-18b0-4bd6-9386-d4d6287788d5{stroke-width:1.5px;}</style><clipPath id="b2a8df1c-a164-4e70-a0d9-45e1d18641a3"><path d="M91.27,161.39c0,4.72,13,8.54,29,8.54s29-3.82,29-8.54-13-8.55-29-8.55-29,3.83-29,8.55" class="aa5b4a69-33dd-4013-a7a3-c345d456634d"></path></clipPath><clipPath id="a42bb52e-a220-41b1-9cc3-bb3bde943c53"><rect height="38.17" width="47.48" y="146.84" x="60.15" class="aa5b4a69-33dd-4013-a7a3-c345d456634d"></rect></clipPath><clipPath id="b0314757-0941-473b-a3a7-71cc63ea1018"><rect height="38.17" width="47.48" y="146.84" x="127.96" class="aa5b4a69-33dd-4013-a7a3-c345d456634d"></rect></clipPath><clipPath id="f1a86953-a852-4a15-adf5-dc544bd17c55"><path d="M119.12,114.93a1.67,1.67,0,0,0-1.56,1.54c-.21,1.69-.79,4.72-.79,4.72v6.28l.39,12v.26l.17,4.81.38,11.61a3.73,3.73,0,0,0,.88,2.33c2.3,2.59,6.21.48,6.06-3.2-.11-2.63-.44-11-.44-11l-.11-1.89c0-.61,0-1.23,0-1.85v-1.14l-.28-11.89V116.54a1.52,1.52,0,0,0-1.41-1.61Z" class="aa5b4a69-33dd-4013-a7a3-c345d456634d"></path></clipPath></defs><title>缺省页小爱</title><g id="ec51fb0f-968a-4ec5-bef4-b95440f55836"><path d="M132.7,24.37A12.71,12.71,0,0,0,120,37.07h0a12.71,12.71,0,1,0-3.55,8.81V56.41h7.1V45.88a12.7,12.7,0,1,0,9.15-21.51M107.3,44.86a7.79,7.79,0,1,1,7.79-7.79,7.78,7.78,0,0,1-7.79,7.79m25.4,0a7.79,7.79,0,1,1,7.79-7.79,7.79,7.79,0,0,1-7.79,7.79" class="adfc0a44-209b-49c1-a980-8cca6efbeb16"></path><path d="M132.7,24.37A12.71,12.71,0,0,0,120,37.07h0a12.71,12.71,0,1,0-3.55,8.81V56.41h7.1V45.88a12.7,12.7,0,1,0,9.15-21.51ZM107.3,44.86a7.79,7.79,0,1,1,7.79-7.79A7.78,7.78,0,0,1,107.3,44.86Zm25.4,0a7.79,7.79,0,1,1,7.79-7.79A7.79,7.79,0,0,1,132.7,44.86Z" class="bfe7b652-bdea-40bf-816a-c28a70816d1d"></path><path d="M144.4,101.73a1,1,0,1,1-2.09,0,1,1,0,0,1,2.09,0" class="adfc0a44-209b-49c1-a980-8cca6efbeb16"></path><path d="M124.91,215.63H114.72a44.5,44.5,0,0,1-44.37-44.36v-23h98.92v22.95a44.5,44.5,0,0,1-44.36,44.37" class="adfc0a44-209b-49c1-a980-8cca6efbeb16"></path><path d="M124.91,215.63H114.72a44.5,44.5,0,0,1-44.37-44.36v-23h98.92v22.95A44.5,44.5,0,0,1,124.91,215.63Z" class="a8d6b97d-4301-4086-855f-7952c771ba37"></path><path d="M110.49,148.31l-7.49,11-25.65-11" class="adfc0a44-209b-49c1-a980-8cca6efbeb16"></path><path d="M110.49,148.31l-7.49,11-25.65-11" class="bfe7b652-bdea-40bf-816a-c28a70816d1d"></path><polyline points="129.13 148.31 136.63 159.32 162.28 148.31" class="adfc0a44-209b-49c1-a980-8cca6efbeb16"></polyline><polyline points="129.13 148.31 136.63 159.32 162.28 148.31" class="bfe7b652-bdea-40bf-816a-c28a70816d1d"></polyline><path d="M111.93,158,108,185.46l11.78,11.66,11.79-11.66L127.7,158" class="adfc0a44-209b-49c1-a980-8cca6efbeb16"></path><path d="M111.93,158,108,185.46l11.78,11.66,11.79-11.66L127.7,158" class="b9703544-ef4f-4b5e-b103-47cc839c36d6"></path><path d="M88,160.93a1.75,1.75,0,0,0-1.75,1.72c-.06,6.45,1.69,29,28.78,33.52a3.3,3.3,0,0,1,2,1.08c1.29,1.51,1.17,2.68,5.29,2.68,3,0,4.06-1.18,4.94-2.54a6.41,6.41,0,0,1,3.5-2.56c6-1.93,23.07-7.35,23.55-32.78a1.1,1.1,0,0,0-1.1-1.12Z" class="adfc0a44-209b-49c1-a980-8cca6efbeb16"></path><path d="M88,160.93a1.75,1.75,0,0,0-1.75,1.72c-.06,6.45,1.69,29,28.78,33.52a3.3,3.3,0,0,1,2,1.08c1.29,1.51,1.17,2.68,5.29,2.68,3,0,4.06-1.18,4.94-2.54a6.41,6.41,0,0,1,3.5-2.56c6-1.93,23.07-7.35,23.55-32.78a1.1,1.1,0,0,0-1.1-1.12Z" class="ff37b42a-5922-4581-82e7-8760020d1686"></path><path d="M129.13,148.31q-.72,4.84-1.43,9.67H111.93l-1.44-9.67" class="adfc0a44-209b-49c1-a980-8cca6efbeb16"></path><path d="M129.13,148.31q-.72,4.84-1.43,9.67H111.93l-1.44-9.67" class="bfe7b652-bdea-40bf-816a-c28a70816d1d"></path><path d="M154.27,161.68c0,6.49-15.22,11.75-34,11.75s-34-5.26-34-11.75,15.23-11.75,34-11.75,34,5.26,34,11.75" class="adfc0a44-209b-49c1-a980-8cca6efbeb16"></path><ellipse ry="11.75" rx="34" cy="161.68" cx="120.27" class="ada7009f-7d55-474d-a74e-f8d53d47eb60"></ellipse><path d="M149.27,161.39c0,4.72-13,8.54-29,8.54s-29-3.82-29-8.54,13-8.55,29-8.55,29,3.83,29,8.55" class="adfc0a44-209b-49c1-a980-8cca6efbeb16"></path><g class="b9ae484f-fa37-4957-97b6-b14bff1509b2"><path d="M91.27,162.93l27-3.66-17,8.66s-12.32-1.83-10-5" class="b8dfc210-89a8-49bf-8cb1-71ee48f4cc10"></path><polygon points="106.35 169.84 118.27 159.27 117.95 170.89 106.35 169.84" class="b8dfc210-89a8-49bf-8cb1-71ee48f4cc10"></polygon><polygon points="119.27 158.22 122.59 170.89 137.67 169.84 122.74 159.68 119.27 158.22" class="b8dfc210-89a8-49bf-8cb1-71ee48f4cc10"></polygon><polyline points="123.27 159.27 144.27 167.72 152.75 159.27 124.27 158.22 123.27 158.22" class="b8dfc210-89a8-49bf-8cb1-71ee48f4cc10"></polyline><polyline points="122.27 157.93 134.95 153.17 146.27 155.93 122.27 158.22" class="b8dfc210-89a8-49bf-8cb1-71ee48f4cc10"></polyline><polygon points="91.27 158.22 118.27 159.27 102.87 152.94 91.27 158.22" class="b8dfc210-89a8-49bf-8cb1-71ee48f4cc10"></polygon><polygon points="108.67 151.88 118.27 159.27 120.27 158.22 115.63 150.82 108.67 151.88" class="b8dfc210-89a8-49bf-8cb1-71ee48f4cc10"></polygon><polygon points="123.75 157.16 129.55 152.94 122.59 151.88 123.75 157.16" class="b8dfc210-89a8-49bf-8cb1-71ee48f4cc10"></polygon></g><path d="M128.88,159.93c0,1.1-3.85,2-8.61,2s-8.6-.9-8.6-2,3.85-2,8.6-2,8.61.9,8.61,2" class="adfc0a44-209b-49c1-a980-8cca6efbeb16"></path><g class="b34a3baf-d2f9-434b-85c6-929687842642"><g class="b34a3baf-d2f9-434b-85c6-929687842642"><path d="M107.29,171.09c2.83,12.42-13.26,14-17.21,13.89-.63,0-1.26,0-1.89,0v-.07s-10.93-10.08.16-21v0c7,1.46,16.21-4.76,18.93,7.19" class="adfc0a44-209b-49c1-a980-8cca6efbeb16"></path><path d="M88.35,164c-11.09,10.91-.16,21-.16,21V185l-.3,0c-36.69-2.33-26.42-37.25-26.42-37.25s18.59-2.55,19.94,8.15c.69,5.53,4,7.38,7,8Z" class="adfc0a44-209b-49c1-a980-8cca6efbeb16"></path></g></g><path d="M61.47,147.74S51.2,182.66,87.89,185l.3,0c.63,0,1.26,0,1.89,0,4,.08,20-1.47,17.21-13.89-2.72-12-12-5.73-18.93-7.19-3-.63-5.5-2.63-7-8" class="b2ec86d7-d299-40d1-b002-48a3c4dfaeb4"></path><path d="M88.19,184.94s-10.93-10.08.16-21" class="b2ec86d7-d299-40d1-b002-48a3c4dfaeb4"></path><g class="b02edf76-7e4a-4d06-9f94-e87c1dc47dcf"><g class="b02edf76-7e4a-4d06-9f94-e87c1dc47dcf"><path d="M128.29,171.09c-2.83,12.42,13.26,14,17.21,13.89.63,0,1.26,0,1.89,0v-.07s10.93-10.08-.16-21v0c-7,1.46-16.21-4.76-18.93,7.19" class="adfc0a44-209b-49c1-a980-8cca6efbeb16"></path><path d="M147.23,164c11.09,10.91.16,21,.16,21V185l.3,0c36.69-2.33,26.42-37.25,26.42-37.25s-16.53-.86-19.94,8.15c-2,5.21-4,7.38-6.95,8Z" class="adfc0a44-209b-49c1-a980-8cca6efbeb16"></path></g></g><path d="M174.11,147.74s10.27,34.92-26.42,37.25l-.3,0c-.63,0-1.26,0-1.89,0-3.95.08-20-1.47-17.21-13.89,2.72-12,12-5.73,18.93-7.19,3-.63,5.5-2.63,6.95-8" class="b2ec86d7-d299-40d1-b002-48a3c4dfaeb4"></path><path d="M147.39,184.94s10.93-10.08-.16-21" class="b2ec86d7-d299-40d1-b002-48a3c4dfaeb4"></path><path d="M176.27,147.14H63.73a4.5,4.5,0,0,1-4.48-4.48V60.81a4.5,4.5,0,0,1,4.48-4.48H176.27a4.5,4.5,0,0,1,4.48,4.48v81.85a4.5,4.5,0,0,1-4.48,4.48" class="a938b96d-acee-46dd-8942-8912b481b19f"></path><rect rx="4.48" height="90.81" width="121.5" y="56.33" x="59.25" class="b9703544-ef4f-4b5e-b103-47cc839c36d6"></rect><path d="M163.81,65.85l-43.27,8.38a3.26,3.26,0,0,1-1.08,0L76.19,65.85c-2-.39-3.8,1.4-3.8,3.74v65.29c0,2.34,1.81,4.13,3.8,3.74l43.28-8.34a2.7,2.7,0,0,1,1.06,0l43.28,8.34c2,.39,3.8-1.4,3.8-3.74V69.59c0-2.34-1.81-4.13-3.8-3.74" class="adfc0a44-209b-49c1-a980-8cca6efbeb16"></path><path d="M163.81,65.85l-43.27,8.38a3.26,3.26,0,0,1-1.08,0L76.19,65.85c-2-.39-3.8,1.4-3.8,3.74v65.29c0,2.34,1.81,4.13,3.8,3.74l43.28-8.34a2.7,2.7,0,0,1,1.06,0l43.28,8.34c2,.39,3.8-1.4,3.8-3.74V69.59C167.61,67.25,165.8,65.46,163.81,65.85Z" class="b9703544-ef4f-4b5e-b103-47cc839c36d6"></path><path d="M55.14,115.17H53.86a3.94,3.94,0,0,1-3.93-3.92v-21a3.94,3.94,0,0,1,3.93-3.92h1.28a3.93,3.93,0,0,1,3.92,3.92v21a3.93,3.93,0,0,1-3.92,3.92" class="adfc0a44-209b-49c1-a980-8cca6efbeb16"></path><rect rx="3.92" height="28.87" width="9.13" y="86.3" x="49.93" class="bfe7b652-bdea-40bf-816a-c28a70816d1d"></rect><path d="M48.11,105.46h0a1.83,1.83,0,0,1-1.83-1.82V95.83a1.83,1.83,0,0,1,3.65,0v7.81a1.83,1.83,0,0,1-1.82,1.82" class="adfc0a44-209b-49c1-a980-8cca6efbeb16"></path><path d="M48.11,105.46h0a1.83,1.83,0,0,1-1.83-1.82V95.83a1.83,1.83,0,0,1,3.65,0v7.81A1.83,1.83,0,0,1,48.11,105.46Z" class="bfe7b652-bdea-40bf-816a-c28a70816d1d"></path><path d="M184.86,115.17h1.28a3.94,3.94,0,0,0,3.93-3.92v-21a3.94,3.94,0,0,0-3.93-3.92h-1.28a3.93,3.93,0,0,0-3.92,3.92v21a3.93,3.93,0,0,0,3.92,3.92" class="adfc0a44-209b-49c1-a980-8cca6efbeb16"></path><rect rx="3.92" height="28.87" width="9.13" y="86.3" x="180.94" class="bfe7b652-bdea-40bf-816a-c28a70816d1d"></rect><path d="M191.89,107.46h0a1.83,1.83,0,0,0,1.83-1.82V97.83a1.83,1.83,0,0,0-3.65,0v7.81a1.83,1.83,0,0,0,1.82,1.82" class="adfc0a44-209b-49c1-a980-8cca6efbeb16"></path><path d="M191.89,107.46h0a1.83,1.83,0,0,0,1.83-1.82V97.83a1.83,1.83,0,0,0-3.65,0v7.81A1.83,1.83,0,0,0,191.89,107.46Z" class="bfe7b652-bdea-40bf-816a-c28a70816d1d"></path><path d="M98.23,110c0,1.48-3.91,2.67-8.73,2.67s-8.73-1.19-8.73-2.67,3.91-2.67,8.73-2.67,8.73,1.19,8.73,2.67" class="b8dfc210-89a8-49bf-8cb1-71ee48f4cc10"></path><path d="M159.23,110c0,1.48-3.91,2.67-8.73,2.67s-8.73-1.19-8.73-2.67,3.91-2.67,8.73-2.67,8.73,1.19,8.73,2.67" class="b8dfc210-89a8-49bf-8cb1-71ee48f4cc10"></path><path d="M91.34,87.43l.71-.07a11.93,11.93,0,0,0,7.22-3.43" class="be1e840f-6c64-490e-95b4-a7df838244b9"></path><path d="M91.34,87.43l.71-.07a11.93,11.93,0,0,0,7.22-3.43" class="b871cdfc-aa40-4e82-b892-8c1f4a708ea0"></path><path d="M140.27,83.93h0a11.74,11.74,0,0,0,7.23,3.39l1.16.11" class="be1e840f-6c64-490e-95b4-a7df838244b9"></path><path d="M140.27,83.93h0a11.74,11.74,0,0,0,7.23,3.39l1.16.11" class="b871cdfc-aa40-4e82-b892-8c1f4a708ea0"></path><path d="M105.27,186.93a45.42,45.42,0,0,0,5.86,4.09,20.13,20.13,0,0,0,6.64,2.41,9.67,9.67,0,0,1-3.67-.18,13.56,13.56,0,0,1-3.45-1.36,16.55,16.55,0,0,1-3-2.17,13.53,13.53,0,0,1-2.39-2.79" class="a231a47d-7164-436f-9a13-2f7268faf083"></path><path d="M115.77,183.43l1,2.47c.33.81.64,1.62,1,2.38A16.64,16.64,0,0,0,119,190.5a10.75,10.75,0,0,0,1.73,1.93,5.14,5.14,0,0,1-2.33-1.44,8.59,8.59,0,0,1-1.55-2.28,11.4,11.4,0,0,1-.88-2.58,9.81,9.81,0,0,1-.24-2.7" class="a231a47d-7164-436f-9a13-2f7268faf083"></path><path d="M124.77,192.43c.6-1.53,1.2-3,1.69-4.44.27-.74.49-1.48.7-2.24s.38-1.52.61-2.32a7.27,7.27,0,0,1,.16,2.46,10,10,0,0,1-.52,2.42,11.4,11.4,0,0,1-1.06,2.23,7.54,7.54,0,0,1-1.58,1.89" class="a231a47d-7164-436f-9a13-2f7268faf083"></path><path d="M126.77,193.43c1.58-1,3.14-1.86,4.65-2.82.76-.47,1.49-1,2.22-1.49s1.41-1.1,2.13-1.69a10.25,10.25,0,0,1-3.81,4,16.1,16.1,0,0,1-2.49,1.25,10.88,10.88,0,0,1-2.7.72" class="a231a47d-7164-436f-9a13-2f7268faf083"></path><polyline points="92.09 93.93 99.09 98.93 90.09 103.93" class="a17ebb36-d1ee-4e30-90f5-55aa5e3053e8"></polyline><polyline points="92.09 93.93 99.09 98.93 90.09 103.93" class="a50f1967-fb23-4c3a-8805-143c018c305e"></polyline><polyline points="147.91 93.93 140.91 98.93 149.91 103.93" class="a17ebb36-d1ee-4e30-90f5-55aa5e3053e8"></polyline><polyline points="147.91 93.93 140.91 98.93 149.91 103.93" class="a50f1967-fb23-4c3a-8805-143c018c305e"></polyline><path d="M118.59,158.46c2.3,2.59,6.21.48,6.06-3.2-.11-2.63-.44-11-.44-11l-.11-1.89c0-.61,0-1.23,0-1.85v-1.14l-.28-11.89V116.54a1.52,1.52,0,0,0-1.41-1.61h-3.24a1.67,1.67,0,0,0-1.56,1.54c-.22,1.69-.79,4.72-.79,4.72v6.28l.39,12v.26l.17,4.81.37,11.6a3.8,3.8,0,0,0,.89,2.34" class="adfc0a44-209b-49c1-a980-8cca6efbeb16"></path><g class="afda970e-1dd1-4717-aa75-e128fae99013"><path d="M117.27,121.2a11.68,11.68,0,0,0,6.5.22" class="b9baa9aa-60aa-44b0-bb6d-1675866ee0b3"></path><path d="M116.27,126.9a8.6,8.6,0,0,0,8,0" class="b9baa9aa-60aa-44b0-bb6d-1675866ee0b3"></path><path d="M116.27,132.61a8.6,8.6,0,0,0,8,0" class="b9baa9aa-60aa-44b0-bb6d-1675866ee0b3"></path><path d="M117.15,139.08s3.64,1.6,6.88-.16" class="b9baa9aa-60aa-44b0-bb6d-1675866ee0b3"></path><path d="M117.27,121.2a11.68,11.68,0,0,0,6.5.22" class="aa5b4a69-33dd-4013-a7a3-c345d456634d"></path><path d="M116.27,126.9a8.6,8.6,0,0,0,8,0" class="aa5b4a69-33dd-4013-a7a3-c345d456634d"></path><path d="M116.27,132.61a8.6,8.6,0,0,0,8,0" class="aa5b4a69-33dd-4013-a7a3-c345d456634d"></path><path d="M117.15,139.08s3.64,1.6,6.88-.16" class="aa5b4a69-33dd-4013-a7a3-c345d456634d"></path><path d="M117.35,145.07a6.09,6.09,0,0,0,6.89,0" class="b9baa9aa-60aa-44b0-bb6d-1675866ee0b3"></path><path d="M117.55,151.39s2.16,2.92,6.94.05" class="b9baa9aa-60aa-44b0-bb6d-1675866ee0b3"></path></g><path d="M118.59,158.46c2.3,2.59,6.21.48,6.06-3.2-.11-2.63-.44-11-.44-11l-.11-1.89c0-.61,0-1.23,0-1.85v-1.14l-.28-11.89V116.54a1.52,1.52,0,0,0-1.41-1.61h-3.24a1.67,1.67,0,0,0-1.56,1.54c-.22,1.69-.79,4.72-.79,4.72v6.28l.39,12v.26l.17,4.81.37,11.6A3.8,3.8,0,0,0,118.59,158.46Z" class="af432c9e-18b0-4bd6-9386-d4d6287788d5"></path><path d="M110.77,110.43s5,9,10,0c0,0,6,9,9-1" class="adfc0a44-209b-49c1-a980-8cca6efbeb16"></path><path d="M110.77,110.43s5,9,10,0c0,0,6,9,9-1" class="bfe7b652-bdea-40bf-816a-c28a70816d1d"></path></g></svg>