<svg viewBox="0 0 240 240" xmlns="http://www.w3.org/2000/svg"><defs><style>.bc323e5a-fc96-411c-9c8c-e021cdf0165f{fill:#17326f;}.a5e5800a-2a64-489f-be66-37060ad2156e{fill:#f3f4f5;}.a3f8564b-d6db-45b8-a133-e84d8654178a,.a9492352-dc68-45aa-9cab-41726563146b,.adc1af77-6217-4717-a902-a267b5c09821,.b06792d9-843d-4c1c-8547-51389089b8a4,.b74b45d7-fc33-4931-be69-0ed3c85fb7de,.b9a5b6c4-dc65-4c2e-a7a7-a4d3f2a07c29,.bc1a2a35-7164-4dc6-8834-aaa181b849a6,.be3f83bf-78cc-4599-887d-ae5f726d2c82,.e7c77825-ef17-44d6-b894-468fb117e0e4,.e92b30b5-15e8-492f-970d-cb76120b5a5a,.ec2343c3-2a41-45a6-b8e1-e3519f63c241{fill:none;}.a3f8564b-d6db-45b8-a133-e84d8654178a,.a9492352-dc68-45aa-9cab-41726563146b,.adc1af77-6217-4717-a902-a267b5c09821,.b525df01-ea92-4b1d-a6a9-3031dc4b3012,.b74b45d7-fc33-4931-be69-0ed3c85fb7de,.b9a5b6c4-dc65-4c2e-a7a7-a4d3f2a07c29,.bc1a2a35-7164-4dc6-8834-aaa181b849a6,.be3f83bf-78cc-4599-887d-ae5f726d2c82,.e7c77825-ef17-44d6-b894-468fb117e0e4,.e92b30b5-15e8-492f-970d-cb76120b5a5a,.ec2343c3-2a41-45a6-b8e1-e3519f63c241{stroke:#17326f;}.b9a5b6c4-dc65-4c2e-a7a7-a4d3f2a07c29,.bc1a2a35-7164-4dc6-8834-aaa181b849a6,.e7c77825-ef17-44d6-b894-468fb117e0e4{stroke-miterlimit:10;}.b9a5b6c4-dc65-4c2e-a7a7-a4d3f2a07c29{stroke-width:1.62px;}.a43cd431-a942-4c2d-bec8-78ac96454848{fill:#e4e6e9;}.a86d3789-a4a5-47ed-bd0f-2c376f821e60,.b525df01-ea92-4b1d-a6a9-3031dc4b3012{fill:#fff;}.a3f8564b-d6db-45b8-a133-e84d8654178a,.a9492352-dc68-45aa-9cab-41726563146b,.adc1af77-6217-4717-a902-a267b5c09821,.b06792d9-843d-4c1c-8547-51389089b8a4,.b525df01-ea92-4b1d-a6a9-3031dc4b3012,.b74b45d7-fc33-4931-be69-0ed3c85fb7de,.be3f83bf-78cc-4599-887d-ae5f726d2c82,.e92b30b5-15e8-492f-970d-cb76120b5a5a,.ec2343c3-2a41-45a6-b8e1-e3519f63c241{stroke-linecap:round;stroke-linejoin:round;}.a9492352-dc68-45aa-9cab-41726563146b{stroke-width:1.73px;}.a3f8564b-d6db-45b8-a133-e84d8654178a{stroke-width:1.95px;}.b525df01-ea92-4b1d-a6a9-3031dc4b3012,.be3f83bf-78cc-4599-887d-ae5f726d2c82{stroke-width:1.91px;}.a493b793-c0a3-4181-9b00-a1807e40944e{fill:#1956a5;}.e7c77825-ef17-44d6-b894-468fb117e0e4{stroke-width:1.98px;}.bc1a2a35-7164-4dc6-8834-aaa181b849a6{stroke-width:2.72px;}.e92b30b5-15e8-492f-970d-cb76120b5a5a{stroke-width:2.25px;}.fe82235e-23a3-4816-929c-3a26cdfaf708{fill:#dedede;}.adc1af77-6217-4717-a902-a267b5c09821{stroke-width:3px;}.ec2343c3-2a41-45a6-b8e1-e3519f63c241{stroke-width:2.03px;}.b74b45d7-fc33-4931-be69-0ed3c85fb7de{stroke-width:1.93px;}.b06792d9-843d-4c1c-8547-51389089b8a4{stroke:#16326f;stroke-width:1.8px;}</style></defs><title>缺省页小爱</title><g id="ee3ea487-e71c-4773-8d85-e7722b8248c1"><path d="M66.32,217.49c3.2-2.85,6.51-5.53,9.86-8.16s6.76-5.2,10.18-7.73,6.91-5,10.43-7.38,7.08-4.74,10.76-6.93c-3.2,2.84-6.51,5.53-9.86,8.16s-6.75,5.2-10.18,7.72-6.9,5-10.43,7.38S70,215.3,66.32,217.49" class="bc323e5a-fc96-411c-9c8c-e021cdf0165f"></path><path d="M94.91,184a32.37,32.37,0,0,1-3.63,3.5c-1.27,1.08-2.59,2.1-3.94,3.06s-2.76,1.87-4.2,2.71a32.19,32.19,0,0,1-4.51,2.26,33.25,33.25,0,0,1,3.63-3.5q1.9-1.62,3.95-3.06c1.35-1,2.76-1.86,4.19-2.71A33.91,33.91,0,0,1,94.91,184" class="bc323e5a-fc96-411c-9c8c-e021cdf0165f"></path><path d="M122.25,211.34a33.35,33.35,0,0,1-3.63,3.51c-1.28,1.07-2.59,2.1-4,3.06s-2.76,1.86-4.2,2.7a32.24,32.24,0,0,1-4.51,2.27,33.31,33.31,0,0,1,3.63-3.51c1.28-1.07,2.59-2.1,4-3.06s2.76-1.86,4.2-2.7a33.37,33.37,0,0,1,4.51-2.27" class="bc323e5a-fc96-411c-9c8c-e021cdf0165f"></path><path d="M110.48,199.05c-1.93,1.87-4,3.57-6.06,5.23s-4.22,3.23-6.37,4.78-4.37,3-6.63,4.43-4.54,2.78-6.94,4c1.93-1.87,4-3.57,6.06-5.23s4.22-3.23,6.38-4.77,4.37-3,6.62-4.43,4.54-2.78,6.94-4" class="bc323e5a-fc96-411c-9c8c-e021cdf0165f"></path><path d="M120.59,60.14a8.38,8.38,0,0,1-5-5.28,1.82,1.82,0,0,0-1.33-1.06C111.53,53,107,60.47,107,60.47l-14,9.37.74.41L25.68,115.39a81.31,81.31,0,0,0-7.18,4.13c-3.18,2.08-6.89,6.89-10.69,7.06-1,0-1.73.31-1.95,1-.75,2.27,4.13,2.37,3.75,4.76S13.45,167.58,46.92,185a3.42,3.42,0,0,1,1.82,2.8c.13,2,.9,4.82,4.23,5.06,3.16.24,4.55-2.45,5.15-4.55a2.77,2.77,0,0,1,2.83-2c3.68.27,11-.31,17.09-7.63,8.16-9.76,62.66-42.84,91.29-81.08a7.31,7.31,0,0,1,2.14-2A2.52,2.52,0,0,0,172.73,93a1.23,1.23,0,0,0-.94-1.19c-4.19-1.1-8.24-2.64-11.48-5.52-9.05-8-25.17-21.07-39.72-26.18" class="a5e5800a-2a64-489f-be66-37060ad2156e"></path><path d="M120.59,60.14a8.38,8.38,0,0,1-5-5.28,1.82,1.82,0,0,0-1.33-1.06C111.53,53,107,60.47,107,60.47l-14,9.37.74.41L25.68,115.39a81.31,81.31,0,0,0-7.18,4.13c-3.18,2.08-6.89,6.89-10.69,7.06-1,0-1.73.31-1.95,1-.75,2.27,4.13,2.37,3.75,4.76S13.45,167.58,46.92,185a3.42,3.42,0,0,1,1.82,2.8c.13,2,.9,4.82,4.23,5.06,3.16.24,4.55-2.45,5.15-4.55a2.77,2.77,0,0,1,2.83-2c3.68.27,11-.31,17.09-7.63,8.16-9.76,62.66-42.84,91.29-81.08a7.31,7.31,0,0,1,2.14-2A2.52,2.52,0,0,0,172.73,93a1.23,1.23,0,0,0-.94-1.19c-4.19-1.1-8.24-2.64-11.48-5.52C151.26,78.28,135.14,65.25,120.59,60.14Z" class="b9a5b6c4-dc65-4c2e-a7a7-a4d3f2a07c29"></path><path d="M65.92,186a28.89,28.89,0,0,1-12-5.75A117.92,117.92,0,0,0,36.8,168.72C18,158.37,12.89,131,11.56,129.52c-.73-.79-3-1.76-5.22-2.54a1.13,1.13,0,0,0-.48.58c-.75,2.27,4.13,2.37,3.75,4.76S13.45,167.58,46.92,185a3.42,3.42,0,0,1,1.82,2.8c.13,2,.9,4.82,4.23,5.06,3.16.24,4.55-2.45,5.15-4.55.36-1.25,6.5-2.4,7.8-2.3" class="a43cd431-a942-4c2d-bec8-78ac96454848"></path><path d="M120.59,60.14a8.38,8.38,0,0,1-5-5.28,1.82,1.82,0,0,0-1.33-1.06C111.53,53,107,60.47,107,60.47l-14,9.37.74.41L25.68,115.39a81.31,81.31,0,0,0-7.18,4.13c-3.18,2.08-6.89,6.89-10.69,7.06-1,0-1.73.31-1.95,1-.75,2.27,4.13,2.37,3.75,4.76S13.45,167.58,46.92,185a3.42,3.42,0,0,1,1.82,2.8c.13,2,.9,4.82,4.23,5.06,3.16.24,4.55-2.45,5.15-4.55a2.77,2.77,0,0,1,2.83-2c3.68.27,11-.31,17.09-7.63,8.16-9.76,62.66-42.84,91.29-81.08a7.31,7.31,0,0,1,2.14-2A2.52,2.52,0,0,0,172.73,93a1.23,1.23,0,0,0-.94-1.19c-4.19-1.1-8.24-2.64-11.48-5.52C151.26,78.28,135.14,65.25,120.59,60.14Z" class="b9a5b6c4-dc65-4c2e-a7a7-a4d3f2a07c29"></path><path d="M137.42,76.65h0a2.4,2.4,0,0,1-3.27.88l-8.33-4.81a2.4,2.4,0,0,1,2.4-4.16l8.32,4.81a2.4,2.4,0,0,1,.88,3.28" class="a86d3789-a4a5-47ed-bd0f-2c376f821e60"></path><path d="M137.42,76.65h0a2.4,2.4,0,0,1-3.27.88l-8.33-4.81a2.4,2.4,0,0,1,2.4-4.16l8.32,4.81A2.4,2.4,0,0,1,137.42,76.65Z" class="a9492352-dc68-45aa-9cab-41726563146b"></path><path d="M154.55,91.76l-1.77,22.48c-.26,3.27-.45,5.46-2.84,7.71L80.4,182.44l3.48-30.62Z" class="a86d3789-a4a5-47ed-bd0f-2c376f821e60"></path><path d="M154.55,91.76l-1.77,22.48c-.26,3.27-.45,5.46-2.84,7.71L80.4,182.44l3.48-30.62Z" class="a3f8564b-d6db-45b8-a133-e84d8654178a"></path><path d="M81.09,180.43l2.79-28.61L22.12,105v29.26a13.94,13.94,0,0,0,5.53,11.12l47.11,37.8a4,4,0,0,0,6.33-2.77" class="a86d3789-a4a5-47ed-bd0f-2c376f821e60"></path><path d="M81.09,180.43l2.79-28.61L22.12,105v29.26a13.94,13.94,0,0,0,5.53,11.12l47.11,37.8A4,4,0,0,0,81.09,180.43Z" class="a3f8564b-d6db-45b8-a133-e84d8654178a"></path><path d="M62.88,79.42,49.46,69.22c6.17-.17,11.76-4.46,11.83-8.81.06-4.51-5-6.83-11.49-6.92S38,57,37.91,61.49a6.12,6.12,0,0,0,.81,3.06,18.16,18.16,0,0,0-3.09-.33c-6.89-.1-10.91,2.93-11.38,6.06-.75,5,4.4,9.67,11.3,9.77,6.19.09,11.26-3.52,12.23-5.55L58,83.18ZM49.76,56.31c4.25.07,7.67,2.51,7.62,5.47S53.86,67.08,49.6,67,41.94,64.51,42,61.55s3.53-5.3,7.78-5.24M43.67,73c0,3.13-3.74,5.62-8.25,5.55s-8.13-2.66-8.09-5.79,3.74-5.63,8.26-5.56a10,10,0,0,1,6.06,2l0,0,.86.73a4.48,4.48,0,0,1,1.21,3" class="bc323e5a-fc96-411c-9c8c-e021cdf0165f"></path><path d="M64.42,75.89,51.83,66.3c6.16-.17,11.13-4,11-9.21s-5.65-8.31-12.15-8.4S39.53,53.45,39.46,58A6,6,0,0,0,40.27,61a17.21,17.21,0,0,0-3.09-.32c-6.9-.11-12.54,3.69-12.61,8.48S30,77.94,36.92,78c6.19.09,11.37-3,12.41-7.07l10.21,8.68ZM51.31,52.79c4.25.06,7.17,1.87,7.13,4.82s-3.61,5.22-7.87,5.16S43.48,61,43.53,58s3.52-5.3,7.78-5.23m-6.09,16.7c0,3.13-3.74,5.62-8.26,5.55s-8.13-2.66-8.08-5.79,3.74-5.62,8.25-5.56a10,10,0,0,1,6.07,2l-.05,0,.85.72a4.54,4.54,0,0,1,1.22,3" class="b525df01-ea92-4b1d-a6a9-3031dc4b3012"></path><path d="M25.05,97.76,87.51,52.87a8.38,8.38,0,0,1,9.22-.38L151.9,85.7a5.67,5.67,0,0,1,.69,9.23L85.78,150.25a3.18,3.18,0,0,1-3.89.12L25,109.2a7.05,7.05,0,0,1,0-11.44" class="a86d3789-a4a5-47ed-bd0f-2c376f821e60"></path><path d="M25.05,97.76,87.51,52.87a8.38,8.38,0,0,1,9.22-.38L151.9,85.7a5.67,5.67,0,0,1,.69,9.23L85.78,150.25a3.18,3.18,0,0,1-3.89.12L25,109.2A7.05,7.05,0,0,1,25.05,97.76Z" class="a3f8564b-d6db-45b8-a133-e84d8654178a"></path><path d="M102.18,169c-.94-17.28,10.24-32.61,25.28-44.85,5.08-4.13,14.31-9.56,19-10.08,23.15-2.55,58.72-1.82,76.9,57.24,7.13,23.18-12.78,52.48-51.27,52-26.08-.33-50.33-12.5-62.68-32.39A46,46,0,0,1,102.18,169" class="a493b793-c0a3-4181-9b00-a1807e40944e"></path><path d="M102.18,169c-.94-17.28,10.24-32.61,25.28-44.85,5.08-4.13,14.31-9.56,19-10.08,23.15-2.55,58.72-1.82,76.9,57.24,7.13,23.18-12.78,52.48-51.27,52-26.08-.33-50.33-12.5-62.68-32.39A46,46,0,0,1,102.18,169Z" class="e7c77825-ef17-44d6-b894-468fb117e0e4"></path><path d="M90.85,170c9.72-12.89,28.86-41.69,55.65-55.88,24.6-13,31.53-12.94,44-3.41,11.74,9,19.58,13.31,37.5,40.28,9.3,14,7.19,33-.31,48.07-7.64,15.3-23.87,33.2-57.75,30.57-45.61-3.54-67.29-28.79-79.21-45A12.26,12.26,0,0,1,90.85,170" class="a86d3789-a4a5-47ed-bd0f-2c376f821e60"></path><path d="M90.85,170c9.72-12.89,28.86-41.69,55.65-55.88,24.6-13,31.53-12.94,44-3.41,11.74,9,19.58,13.31,37.5,40.28,9.3,14,7.19,33-.31,48.07-7.64,15.3-23.87,33.2-57.75,30.57-45.61-3.54-67.29-28.79-79.21-45A12.26,12.26,0,0,1,90.85,170Z" class="bc1a2a35-7164-4dc6-8834-aaa181b849a6"></path><polygon points="76.17 80.78 34.92 102 82.92 138.65 112.62 109.16 143.61 90.95 92.7 59.89 76.17 80.78" class="a86d3789-a4a5-47ed-bd0f-2c376f821e60"></polygon><polygon points="76.17 80.78 34.92 102 82.92 138.65 112.62 109.16 143.61 90.95 92.7 59.89 76.17 80.78" class="be3f83bf-78cc-4599-887d-ae5f726d2c82"></polygon><path d="M65.92,104.69s9.11.39,11-7.11" class="e92b30b5-15e8-492f-970d-cb76120b5a5a"></path><path d="M97.13,81.75s7.47.1,8-6.1" class="e92b30b5-15e8-492f-970d-cb76120b5a5a"></path><path d="M91.67,89.28c.23-.06,2.52-1,4.51-4.55s6.29,1.33,2.31,3.78a8.06,8.06,0,0,1-6.82.77" class="fe82235e-23a3-4816-929c-3a26cdfaf708"></path><path d="M81.43,105c.65.93-2.06,3.9-6.05,6.64s-7.73,4.2-8.37,3.27,2.07-3.91,6-6.64,7.73-4.2,8.37-3.27" class="fe82235e-23a3-4816-929c-3a26cdfaf708"></path><path d="M121.4,76.47c.57.83-1.61,3.31-4.86,5.55s-6.36,3.38-6.93,2.55,1.61-3.31,4.87-5.55,6.36-3.38,6.92-2.55" class="fe82235e-23a3-4816-929c-3a26cdfaf708"></path><path d="M96.47,85.8a1.26,1.26,0,0,1,.61-1.4,1.66,1.66,0,0,1,.81-.14,1.92,1.92,0,0,1,.74.22,3.31,3.31,0,0,0-1.38.23,1.71,1.71,0,0,0-.78,1.09" class="a86d3789-a4a5-47ed-bd0f-2c376f821e60"></path><path d="M90.85,170c9.72-12.89,28.86-41.69,55.65-55.88,24.6-13,31.53-12.94,44-3.41,11.9,9.09,20.14,12.62,37.5,40.28,8.94,14.24,7.19,33-.31,48.07-7.64,15.3-23.87,33.2-57.75,30.57-45.61-3.54-67.29-28.79-79.21-45A12.26,12.26,0,0,1,90.85,170Z" class="bc1a2a35-7164-4dc6-8834-aaa181b849a6"></path><path d="M92.16,168.23c-.45.61-.89,1.21-1.31,1.76a12.26,12.26,0,0,0-.08,14.66c11.92,16.18,33.6,41.43,79.21,45,33,2.56,49.23-14.32,57.11-29.33C158,235.74,104.85,182.67,92.16,168.23" class="a5e5800a-2a64-489f-be66-37060ad2156e"></path><path d="M60,153.35h0a3.72,3.72,0,0,1-5.18.92l-14.16-9.88a3.72,3.72,0,1,1,4.26-6.11l14.16,9.88a3.72,3.72,0,0,1,.92,5.19" class="a86d3789-a4a5-47ed-bd0f-2c376f821e60"></path><path d="M60,153.35h0a3.72,3.72,0,0,1-5.18.92l-14.16-9.88a3.72,3.72,0,1,1,4.26-6.11l14.16,9.88A3.72,3.72,0,0,1,60,153.35Z" class="a9492352-dc68-45aa-9cab-41726563146b"></path><path d="M53.32,153.89h0a2.39,2.39,0,0,1-3.34.6L42.1,149a2.4,2.4,0,0,1,2.74-3.94l7.89,5.5a2.4,2.4,0,0,1,.59,3.34" class="a86d3789-a4a5-47ed-bd0f-2c376f821e60"></path><path d="M53.32,153.89h0a2.39,2.39,0,0,1-3.34.6L42.1,149a2.4,2.4,0,0,1,2.74-3.94l7.89,5.5A2.4,2.4,0,0,1,53.32,153.89Z" class="a9492352-dc68-45aa-9cab-41726563146b"></path><path d="M98.27,42.13l5.15.47-.65-.72-.14.17,0,0-.27.29-.55.55c-.19.17-.38.35-.59.51l-.33.27h0l-.17.13a15.31,15.31,0,0,1-1.32.83l-.16.09h0l-.35.17-.76.32c-.28.11-.73.39-.71.74s.43.45.73.45l5.18.07a1.84,1.84,0,0,0,1.55-.65c.29-.46-.25-.71-.65-.72L99,45.05c0,.4,0,.8,0,1.19A14.85,14.85,0,0,0,105,42a.41.41,0,0,0,0-.5.93.93,0,0,0-.64-.22l-5.15-.48a1.85,1.85,0,0,0-1.55.65c-.3.49.27.69.65.73" class="bc323e5a-fc96-411c-9c8c-e021cdf0165f"></path><path d="M106.17,27.61a23.2,23.2,0,0,0,5.27,2l-.44-.85a7.82,7.82,0,0,1-2.85,2.6c.19-.1-.17.08-.24.11s-.31.15-.48.22l-.27.11c-.13.05-.11,0,0,0l-.51.15-.51.12c-.26.06.11,0-.05,0l-.23,0-.53.06h-.23c-.38,0,.24,0-.14,0a2,2,0,0,0-1.63.64c-.3.41-.13.8.37.95q3.09.9,6.24,1.51a2.06,2.06,0,0,0,1.84-.49.58.58,0,0,0-.28-1c-2.1-.41-4.19-.92-6.25-1.52L104,33.84a11.4,11.4,0,0,0,9.44-4.92c.26-.38-.06-.75-.44-.84a21.05,21.05,0,0,1-4.79-1.83,2,2,0,0,0-1.85.21c-.37.26-.75.85-.19,1.15" class="bc323e5a-fc96-411c-9c8c-e021cdf0165f"></path><path d="M114.22,12.36l14.18,3.25c-.06-.67-.12-1.34-.17-2q-7.5,3.87-15.32,7a1.26,1.26,0,0,0-.81,1.15c.05.53.51.75,1,.86L124,25.35c1.48.36,2.87-1.74,1-2.21l-11-2.69c.06.67.11,1.35.17,2q7.82-3.18,15.32-7c1.06-.55,1-1.74-.17-2L115.2,10.16c-1.49-.34-2.89,1.77-1,2.2" class="bc323e5a-fc96-411c-9c8c-e021cdf0165f"></path><path d="M90.85,170c9.72-12.89,28.86-41.69,55.65-55.88,24.6-13,31.83-13.31,44-3.41C202.09,120.08,212.09,124,228,151c8.56,14.47,7.19,33-.31,48.07-7.64,15.3-23.87,33.2-57.75,30.57-45.61-3.54-67.29-28.79-79.21-45A12.26,12.26,0,0,1,90.85,170Z" class="adc1af77-6217-4717-a902-a267b5c09821"></path><path d="M170,111.64A12.37,12.37,0,0,1,157.61,124c-6.83,0-11.5-3.67-11.5-10.51a12.37,12.37,0,0,1,12.37-12.37c6.83,0,11.5,3.67,11.5,10.51" class="a86d3789-a4a5-47ed-bd0f-2c376f821e60"></path><path d="M170,111.64A12.37,12.37,0,0,1,157.61,124c-6.83,0-11.5-3.67-11.5-10.51a12.37,12.37,0,0,1,12.37-12.37C165.31,101.13,170,104.8,170,111.64Z" class="ec2343c3-2a41-45a6-b8e1-e3519f63c241"></path><path d="M120.24,154.86c0,7.49-8.27,16-15.75,16A13.55,13.55,0,0,1,90.93,157.3c0-7.48,8.27-16,15.76-16a13.55,13.55,0,0,1,13.55,13.55" class="a86d3789-a4a5-47ed-bd0f-2c376f821e60"></path><path d="M120.24,154.86c0,7.49-8.27,16-15.75,16A13.55,13.55,0,0,1,90.93,157.3c0-7.48,8.27-16,15.76-16A13.55,13.55,0,0,1,120.24,154.86Z" class="b74b45d7-fc33-4931-be69-0ed3c85fb7de"></path><path d="M91.42,98.37s8.07,1.06,9-7.32" class="b06792d9-843d-4c1c-8547-51389089b8a4"></path></g></svg>