<svg viewBox="0 0 240 240" xmlns="http://www.w3.org/2000/svg"><defs><style>.bd5cda8f-1edb-4eff-9ec0-6fcc510766de{fill:#fff;}.a362528d-8d1e-48f2-843a-9a24903923b1,.a4228b4b-111d-4306-9f06-32490ae9460e,.aba4797d-8f2f-4b84-80a1-583034ca9e8e,.b2a967c1-cb5a-495b-8278-79e287b91217,.b2de5c78-afdf-4265-a9b0-aee3e7a6abd8,.b3e705d0-1ad7-4ba4-9962-3f69d28a53d1,.b80a2711-389f-4556-a896-ca88280d9af7,.e3440513-4094-465c-bb35-9f301d03fb50,.edb42b9e-0033-4948-888a-3a3a94aa8d72,.f27f1b46-c68e-4868-9633-a2642c80d88b,.fda2213e-0558-44f3-aba5-84486b1abf25{fill:none;}.a362528d-8d1e-48f2-843a-9a24903923b1,.a4228b4b-111d-4306-9f06-32490ae9460e,.b2a967c1-cb5a-495b-8278-79e287b91217,.b2de5c78-afdf-4265-a9b0-aee3e7a6abd8,.b3e705d0-1ad7-4ba4-9962-3f69d28a53d1,.b80a2711-389f-4556-a896-ca88280d9af7,.e3440513-4094-465c-bb35-9f301d03fb50,.edb42b9e-0033-4948-888a-3a3a94aa8d72,.f27f1b46-c68e-4868-9633-a2642c80d88b,.fda2213e-0558-44f3-aba5-84486b1abf25{stroke:#16326f;}.a362528d-8d1e-48f2-843a-9a24903923b1,.b3e705d0-1ad7-4ba4-9962-3f69d28a53d1,.b80a2711-389f-4556-a896-ca88280d9af7,.edb42b9e-0033-4948-888a-3a3a94aa8d72,.f27f1b46-c68e-4868-9633-a2642c80d88b{stroke-linecap:round;stroke-linejoin:round;}.a362528d-8d1e-48f2-843a-9a24903923b1{stroke-width:1.52px;}.b7bd783b-657f-4973-b2b2-312349ae2d28{fill:#16326f;}.a4228b4b-111d-4306-9f06-32490ae9460e,.b2a967c1-cb5a-495b-8278-79e287b91217,.b2de5c78-afdf-4265-a9b0-aee3e7a6abd8,.e3440513-4094-465c-bb35-9f301d03fb50,.fda2213e-0558-44f3-aba5-84486b1abf25{stroke-miterlimit:10;}.e3440513-4094-465c-bb35-9f301d03fb50{stroke-width:1.45px;}.edb42b9e-0033-4948-888a-3a3a94aa8d72,.fda2213e-0558-44f3-aba5-84486b1abf25{stroke-width:1.49px;}.b2a967c1-cb5a-495b-8278-79e287b91217{stroke-width:1.46px;}.f874b205-2edc-47ec-add3-1fd433c68c75{fill:#dedede;}.fe069961-9160-427c-875c-b89673d613c7{fill:#2a5eab;}.f27f1b46-c68e-4868-9633-a2642c80d88b{stroke-width:1.8px;}.b3e705d0-1ad7-4ba4-9962-3f69d28a53d1{stroke-width:1.64px;}.b80a2711-389f-4556-a896-ca88280d9af7{stroke-width:1.6px;}.b2de5c78-afdf-4265-a9b0-aee3e7a6abd8{stroke-width:1.41px;}.a4228b4b-111d-4306-9f06-32490ae9460e{stroke-width:1.65px;}</style></defs><title>缺省页小爱</title><g id="ab69a590-8139-4204-a380-aa77d61da61c"><path d="M180.46,212.05v.5S163.23,223,117.35,224.4c-28.93.89-56.84-7.11-65.5-9.86l.13-.45s-3-68.3,28.3-82.57c32.5-14.82,85.86,8.16,85.86,8.16s13.31,12.23,14.32,72.37" class="bd5cda8f-1edb-4eff-9ec0-6fcc510766de"></path><rect height="97.93" width="128.62" y="126.54" x="51.85" class="aba4797d-8f2f-4b84-80a1-583034ca9e8e"></rect><rect height="97.93" width="128.62" y="126.54" x="51.85" class="aba4797d-8f2f-4b84-80a1-583034ca9e8e"></rect><path d="M52,214.09s-3-68.3,28.3-82.57c32.5-14.82,85.86,8.16,85.86,8.16s13.31,12.23,14.32,72.37" class="a362528d-8d1e-48f2-843a-9a24903923b1"></path><path d="M92.62,30.49a13.68,13.68,0,0,0,23.8,8.79l.34,11.33,3.82-.11,3.82-.11-.33-11.33a13.68,13.68,0,1,0-4.1-9.37,13.68,13.68,0,0,0-27.35.8m32.64-1a8.39,8.39,0,1,1,8.63,8.14,8.39,8.39,0,0,1-8.63-8.14m-27.35.8a8.39,8.39,0,1,1,8.63,8.14,8.4,8.4,0,0,1-8.63-8.14" class="b7bd783b-657f-4973-b2b2-312349ae2d28"></path><path d="M61.33,53.08,49.91,63.39a5.58,5.58,0,0,0-2.14,4.46l.75,70.93A5.59,5.59,0,0,0,52.11,144l10.21,3.5Z" class="bd5cda8f-1edb-4eff-9ec0-6fcc510766de"></path><path d="M61.33,53.08,49.91,63.39a5.58,5.58,0,0,0-2.14,4.46l.75,70.93A5.59,5.59,0,0,0,52.11,144l10.21,3.5Z" class="e3440513-4094-465c-bb35-9f301d03fb50"></path><path d="M187.84,114.08l1.38,0a4.22,4.22,0,0,0,4.18-4.27l-.24-22.63A4.23,4.23,0,0,0,188.9,83l-1.39,0a4.23,4.23,0,0,0-4.18,4.26l.24,22.64a4.25,4.25,0,0,0,4.27,4.18" class="bd5cda8f-1edb-4eff-9ec0-6fcc510766de"></path><path d="M187.84,114.08l1.38,0a4.22,4.22,0,0,0,4.18-4.27l-.24-22.63A4.23,4.23,0,0,0,188.9,83l-1.39,0a4.23,4.23,0,0,0-4.18,4.26l.24,22.64A4.25,4.25,0,0,0,187.84,114.08Z" class="edb42b9e-0033-4948-888a-3a3a94aa8d72"></path><path d="M195.31,104.62h0a2,2,0,0,0,1.95-2l-.09-8.41a2,2,0,1,0-3.93,0l.09,8.4a2,2,0,0,0,2,1.94" class="bd5cda8f-1edb-4eff-9ec0-6fcc510766de"></path><path d="M195.31,104.62h0a2,2,0,0,0,1.95-2l-.09-8.41a2,2,0,1,0-3.93,0l.09,8.4A2,2,0,0,0,195.31,104.62Z" class="edb42b9e-0033-4948-888a-3a3a94aa8d72"></path><path d="M187.84,114.08l1.38,0a4.22,4.22,0,0,0,4.18-4.27l-.24-22.63A4.23,4.23,0,0,0,188.9,83l-1.39,0a4.23,4.23,0,0,0-4.18,4.26l.24,22.64A4.25,4.25,0,0,0,187.84,114.08Z" class="edb42b9e-0033-4948-888a-3a3a94aa8d72"></path><path d="M195.31,104.62h0a2,2,0,0,0,1.95-2l-.09-8.41a2,2,0,1,0-3.93,0l.09,8.4A2,2,0,0,0,195.31,104.62Z" class="edb42b9e-0033-4948-888a-3a3a94aa8d72"></path><path d="M94.85,30.41a13.67,13.67,0,0,0,23.8,8.79L119,50.54l3.83-.12,3.82-.11L126.3,39a13.68,13.68,0,1,0-4.1-9.37,13.68,13.68,0,0,0-27.35.8m32.64-.95a8.39,8.39,0,1,1,8.63,8.14,8.38,8.38,0,0,1-8.63-8.14m-27.35.8a8.39,8.39,0,1,1,8.63,8.14,8.39,8.39,0,0,1-8.63-8.14" class="bd5cda8f-1edb-4eff-9ec0-6fcc510766de"></path><path d="M94.85,30.41a13.67,13.67,0,0,0,23.8,8.79L119,50.54l3.83-.12,3.82-.11L126.3,39a13.68,13.68,0,1,0-4.1-9.37,13.68,13.68,0,0,0-27.35.8Zm32.64-.95a8.39,8.39,0,1,1,8.63,8.14A8.38,8.38,0,0,1,127.49,29.46Zm-27.35.8a8.39,8.39,0,1,1,8.63,8.14A8.39,8.39,0,0,1,100.14,30.26Z" class="edb42b9e-0033-4948-888a-3a3a94aa8d72"></path><path d="M93.73,99.53a1.13,1.13,0,0,0,2.25,0,1.11,1.11,0,0,0-1.13-1.11,1.14,1.14,0,0,0-1.12,1.14" class="bd5cda8f-1edb-4eff-9ec0-6fcc510766de"></path><path d="M119.47,147.77l-8.08,11.85L83.78,147.77" class="bd5cda8f-1edb-4eff-9ec0-6fcc510766de"></path><path d="M119.47,147.77l-8.08,11.85L83.78,147.77" class="edb42b9e-0033-4948-888a-3a3a94aa8d72"></path><polyline points="139.53 147.77 147.61 159.62 175.22 147.77" class="bd5cda8f-1edb-4eff-9ec0-6fcc510766de"></polyline><polyline points="139.53 147.77 147.61 159.62 175.22 147.77" class="edb42b9e-0033-4948-888a-3a3a94aa8d72"></polyline><path d="M121,158.18l-4.2,29.58,12.69,12.56,12.69-12.56L138,158.18" class="bd5cda8f-1edb-4eff-9ec0-6fcc510766de"></path><path d="M121,158.18l-4.2,29.58,12.69,12.56,12.69-12.56L138,158.18" class="fda2213e-0558-44f3-aba5-84486b1abf25"></path><path d="M139.53,147.77c-.51,3.47-1,6.94-1.54,10.41H121l-1.54-10.41" class="bd5cda8f-1edb-4eff-9ec0-6fcc510766de"></path><path d="M139.53,147.77c-.51,3.47-1,6.94-1.54,10.41H121l-1.54-10.41" class="edb42b9e-0033-4948-888a-3a3a94aa8d72"></path><path d="M66.25,148.71l115-1.22a4.7,4.7,0,0,0,4.65-4.75l-.93-88.36a4.71,4.71,0,0,0-4.75-4.65l-115,1.21a4.71,4.71,0,0,0-4.65,4.75l.93,88.36a4.73,4.73,0,0,0,4.76,4.66" class="bd5cda8f-1edb-4eff-9ec0-6fcc510766de"></path><path d="M66.25,148.71l115-1.22a4.7,4.7,0,0,0,4.65-4.75l-.93-88.36a4.71,4.71,0,0,0-4.75-4.65l-115,1.21a4.71,4.71,0,0,0-4.65,4.75l.93,88.36A4.73,4.73,0,0,0,66.25,148.71Z" class="b2a967c1-cb5a-495b-8278-79e287b91217"></path><path d="M77.79,58.9l52.06,8.47a3,3,0,0,0,1.16,0l41.11-9.46c2.14-.43,4.11,1.47,4.14,4l.77,73.52c0,2.53-1.9,4.47-4.05,4.08l-41.3-8.55a3.18,3.18,0,0,0-1.15,0l-51.89,9.53c-2.13.44-4.1-1.46-4.13-4L73.73,63c0-2.52,1.91-4.46,4.06-4.07" class="bd5cda8f-1edb-4eff-9ec0-6fcc510766de"></path><path d="M77.79,58.9l52.06,8.47a3,3,0,0,0,1.16,0l41.11-9.46c2.14-.43,4.11,1.47,4.14,4l.77,73.52c0,2.53-1.9,4.47-4.05,4.08l-41.3-8.55a3.18,3.18,0,0,0-1.15,0l-51.89,9.53c-2.13.44-4.1-1.46-4.13-4L73.73,63C73.71,60.45,75.64,58.51,77.79,58.9Z" class="fda2213e-0558-44f3-aba5-84486b1abf25"></path><path d="M50.33,115.53H49a4.24,4.24,0,0,1-4.27-4.18l-.24-22.63a4.24,4.24,0,0,1,4.18-4.27H50a4.22,4.22,0,0,1,4.26,4.18l.24,22.63a4.24,4.24,0,0,1-4.18,4.27" class="bd5cda8f-1edb-4eff-9ec0-6fcc510766de"></path><path d="M50.33,115.53H49a4.24,4.24,0,0,1-4.27-4.18l-.24-22.63a4.24,4.24,0,0,1,4.18-4.27H50a4.22,4.22,0,0,1,4.26,4.18l.24,22.63A4.24,4.24,0,0,1,50.33,115.53Z" class="edb42b9e-0033-4948-888a-3a3a94aa8d72"></path><path d="M153.17,102.44c0,1.59,4.24,2.83,9.43,2.78s9.38-1.39,9.36-3-4.23-2.83-9.42-2.78-9.39,1.39-9.37,3" class="f874b205-2edc-47ec-add3-1fd433c68c75"></path><path d="M90.71,102c0,1.59,4.24,2.83,9.43,2.78s9.38-1.39,9.36-3S105.27,99,100.08,99s-9.39,1.39-9.37,3" class="f874b205-2edc-47ec-add3-1fd433c68c75"></path><path d="M150.31,93c.05,5.16,2.6,9.31,5.7,9.28s5.55-4.24,5.5-9.39-2.61-9.31-5.7-9.28-5.56,4.24-5.5,9.39" class="b7bd783b-657f-4973-b2b2-312349ae2d28"></path><path d="M152.63,93c0,3,1.52,5.45,3.34,5.43s3.25-2.48,3.22-5.5-1.53-5.45-3.34-5.43S152.6,90,152.63,93" class="fe069961-9160-427c-875c-b89673d613c7"></path><path d="M101,93.56c0,5.16,2.6,9.31,5.7,9.28s5.55-4.24,5.5-9.39-2.61-9.31-5.7-9.28-5.56,4.24-5.5,9.39" class="b7bd783b-657f-4973-b2b2-312349ae2d28"></path><path d="M103.3,93.54c0,3,1.52,5.45,3.34,5.43s3.25-2.48,3.22-5.5S108.33,88,106.52,88s-3.25,2.48-3.22,5.5" class="fe069961-9160-427c-875c-b89673d613c7"></path><path d="M44.82,106.21h0a2,2,0,0,1-2-1.94l-.09-8.41a2,2,0,0,1,3.93,0l.09,8.4a2,2,0,0,1-1.94,2" class="bd5cda8f-1edb-4eff-9ec0-6fcc510766de"></path><path d="M44.82,106.21h0a2,2,0,0,1-2-1.94l-.09-8.41a2,2,0,0,1,3.93,0l.09,8.4A2,2,0,0,1,44.82,106.21Z" class="edb42b9e-0033-4948-888a-3a3a94aa8d72"></path><path d="M123.4,106s9.69,5.39,18.3-1.08" class="f27f1b46-c68e-4868-9633-a2642c80d88b"></path><path d="M144.93,148c6.46,6.46,6.46,16.15,1.07,23.69a65.18,65.18,0,0,1-8,7.52l-.3-.36c-10-3.92-17.51-12.54-15.07-23.07l-.41-.81c4.47-2.28,9-5.08,13.92-7.13a14.84,14.84,0,0,1,4-1c1.62-.2,3.23-.4,4.84,1.21" class="bd5cda8f-1edb-4eff-9ec0-6fcc510766de"></path><path d="M137.68,178.8l.3.36c-9.35,7.39-20.39,11.67-32.42,11a43.05,43.05,0,0,1-8.22-1.38,48.66,48.66,0,0,1-7.55-2.31,33.41,33.41,0,0,1-11.08-6.79v-1.08a48.32,48.32,0,0,1,3-12.6A20.91,20.91,0,0,1,87.12,158a11.59,11.59,0,0,1,9.62-2.59l.63-.59c8.87,6.78,16.7,4.31,24.83.15l.41.81c-2.44,10.53,5.09,19.15,15.07,23.07" class="bd5cda8f-1edb-4eff-9ec0-6fcc510766de"></path><rect height="43.65" width="71.21" y="146.61" x="78.71" class="aba4797d-8f2f-4b84-80a1-583034ca9e8e"></rect><rect height="43.65" width="71.21" y="146.61" x="78.71" class="aba4797d-8f2f-4b84-80a1-583034ca9e8e"></rect><path d="M78.71,179.72a33.41,33.41,0,0,0,11.08,6.79,48.66,48.66,0,0,0,7.55,2.31,43.05,43.05,0,0,0,8.22,1.38c12,.63,23.07-3.65,32.42-11a65.18,65.18,0,0,0,8-7.52c5.39-7.54,5.39-17.23-1.07-23.69-1.61-1.61-3.22-1.41-4.84-1.21a14.49,14.49,0,0,0-4,1.06c-4.89,2-9.45,4.84-13.92,7.12-8.13,4.16-16,6.63-24.83-.14-.21-.16-.43-.33-.63-.5" class="b3e705d0-1ad7-4ba4-9962-3f69d28a53d1"></path><path d="M122.61,155.73c-2.44,10.53,5.09,19.15,15.07,23.07" class="b3e705d0-1ad7-4ba4-9962-3f69d28a53d1"></path><path d="M141.67,147.17s5.73-2.52,8.48,1.16c3.25,4.35-3,9.67-3,9.67" class="bd5cda8f-1edb-4eff-9ec0-6fcc510766de"></path><path d="M141.67,147.17s5.73-2.52,8.48,1.16c3.25,4.35-3,9.67-3,9.67" class="b80a2711-389f-4556-a896-ca88280d9af7"></path><path d="M168.07,193.71H148.89a5.3,5.3,0,0,1-5-5.55l6.82-38.42a5.31,5.31,0,0,1,5-5.56H174.9a5.32,5.32,0,0,1,5,5.56l-6.83,38.42a5.3,5.3,0,0,1-5,5.55" class="bd5cda8f-1edb-4eff-9ec0-6fcc510766de"></path><path d="M168.31,193.71H151.73a4.85,4.85,0,0,1-4.64-5l7-36.77a4.85,4.85,0,0,1,4.65-5h16.58a4.86,4.86,0,0,1,4.65,5l-7,36.77a4.85,4.85,0,0,1-4.65,5" class="f874b205-2edc-47ec-add3-1fd433c68c75"></path><path d="M159.94,153.34a2,2,0,1,1-1.95-2.16,2.05,2.05,0,0,1,1.95,2.16" class="b7bd783b-657f-4973-b2b2-312349ae2d28"></path><path d="M155.71,144.18a5.31,5.31,0,0,0-5,5.56l-6.82,38.42a5.3,5.3,0,0,0,5,5.55h19.18a5.3,5.3,0,0,0,5-5.55l6.83-38.42a5.32,5.32,0,0,0-5-5.56Z" class="aba4797d-8f2f-4b84-80a1-583034ca9e8e"></path><path d="M168.07,193.71H148.89a5.3,5.3,0,0,1-5-5.55l6.82-38.42a5.31,5.31,0,0,1,5-5.56H174.9a5.32,5.32,0,0,1,5,5.56l-6.83,38.42A5.3,5.3,0,0,1,168.07,193.71Z" class="b2de5c78-afdf-4265-a9b0-aee3e7a6abd8"></path><path d="M157,158.72a1,1,0,1,1-1-1.08,1,1,0,0,1,1,1.08" class="bd5cda8f-1edb-4eff-9ec0-6fcc510766de"></path><path d="M173.09,170.26c11.17.24,13.64,12.42,9.51,17.94s-15.25,4.91-20.58-.84c-4.62-5-2.48-17.4,11.07-17.1" class="bd5cda8f-1edb-4eff-9ec0-6fcc510766de"></path><path d="M173.09,170.26c11.17.24,13.64,12.42,9.51,17.94s-15.25,4.91-20.58-.84C157.4,182.37,159.54,170,173.09,170.26Z" class="a4228b4b-111d-4306-9f06-32490ae9460e"></path></g></svg>