<svg viewBox="0 0 240 240" xmlns:xlink="http://www.w3.org/1999/xlink" xmlns="http://www.w3.org/2000/svg"><defs><style>.a81b03a2-96e9-403d-8aa6-8b00ea41346b,.ee326411-f671-4071-a309-6e92bf6d72f8{fill:#fff;}.a00f680d-2138-4ba7-9ce9-da2ac2ef6565,.a1aac63c-7996-4c9d-8246-39ad3da5e58d,.a51deec0-71f4-4b96-936b-bcd70b2a493c,.a5ce48c7-afb9-4bf9-ab5f-79a766e84672,.a829514d-9fcb-41ed-91d1-dc9bb558dd9f,.ac2b0ff0-8865-412f-bd21-d49b2179fe8c,.af205118-49e7-4d5a-bbce-a275dc36bf84,.b4035f70-dc67-419e-8693-bd1f85a637d4,.b934df07-071c-42c4-b677-08e97ac5c50b,.bc017803-4f68-4c16-a9a2-53c17e6f1a26,.eb1ab612-23fb-4bce-8e99-60816e93abfd,.eb37417d-81cf-4c1f-9188-74dbc4a23541,.f04b359b-91bf-4edb-a2fd-541bc7eec3b5,.f21d60c5-e35c-42b6-b9ff-bf3918accfed,.f57387ad-e395-4daf-8b78-398d81704c56,.f7fc6b7b-ec28-4008-b6e9-8ac7a6598fa2,.fada4555-11ee-424d-b586-d90af0ee6563{fill:none;}.b07d885f-20bf-4e30-8971-9b4165c938df{fill:#dfdbdb;}.a00f680d-2138-4ba7-9ce9-da2ac2ef6565,.a1aac63c-7996-4c9d-8246-39ad3da5e58d,.a51deec0-71f4-4b96-936b-bcd70b2a493c,.a5ce48c7-afb9-4bf9-ab5f-79a766e84672,.a829514d-9fcb-41ed-91d1-dc9bb558dd9f,.abeba260-f958-4bff-8cd1-6fb3c86132e0,.ac2b0ff0-8865-412f-bd21-d49b2179fe8c,.af205118-49e7-4d5a-bbce-a275dc36bf84,.b4035f70-dc67-419e-8693-bd1f85a637d4,.b934df07-071c-42c4-b677-08e97ac5c50b,.bc017803-4f68-4c16-a9a2-53c17e6f1a26,.eb37417d-81cf-4c1f-9188-74dbc4a23541,.ee326411-f671-4071-a309-6e92bf6d72f8,.f04b359b-91bf-4edb-a2fd-541bc7eec3b5,.f21d60c5-e35c-42b6-b9ff-bf3918accfed,.f57387ad-e395-4daf-8b78-398d81704c56,.f7fc6b7b-ec28-4008-b6e9-8ac7a6598fa2,.fada4555-11ee-424d-b586-d90af0ee6563{stroke:#16326f;}.a1aac63c-7996-4c9d-8246-39ad3da5e58d,.a51deec0-71f4-4b96-936b-bcd70b2a493c,.a829514d-9fcb-41ed-91d1-dc9bb558dd9f,.abeba260-f958-4bff-8cd1-6fb3c86132e0,.bc017803-4f68-4c16-a9a2-53c17e6f1a26,.eb37417d-81cf-4c1f-9188-74dbc4a23541,.f57387ad-e395-4daf-8b78-398d81704c56,.f7fc6b7b-ec28-4008-b6e9-8ac7a6598fa2,.fada4555-11ee-424d-b586-d90af0ee6563{stroke-miterlimit:10;}.a51deec0-71f4-4b96-936b-bcd70b2a493c{stroke-width:1.5px;}.a829514d-9fcb-41ed-91d1-dc9bb558dd9f{stroke-width:1.42px;}.a1aac63c-7996-4c9d-8246-39ad3da5e58d{stroke-width:1.33px;}.fd98046b-1640-4481-a5c4-93aec9a9e2e8{fill:#ececec;}.b2ad367a-da54-4e6d-904a-a6b96253c83e{clip-path:url(#acfb53c1-e723-4401-9ec6-90daca21d735);}.a00f680d-2138-4ba7-9ce9-da2ac2ef6565,.a5ce48c7-afb9-4bf9-ab5f-79a766e84672,.ac2b0ff0-8865-412f-bd21-d49b2179fe8c,.af205118-49e7-4d5a-bbce-a275dc36bf84,.b4035f70-dc67-419e-8693-bd1f85a637d4,.b934df07-071c-42c4-b677-08e97ac5c50b,.ee326411-f671-4071-a309-6e92bf6d72f8,.f04b359b-91bf-4edb-a2fd-541bc7eec3b5,.f21d60c5-e35c-42b6-b9ff-bf3918accfed{stroke-linecap:round;stroke-linejoin:round;}.ee326411-f671-4071-a309-6e92bf6d72f8,.f21d60c5-e35c-42b6-b9ff-bf3918accfed,.f57387ad-e395-4daf-8b78-398d81704c56{stroke-width:1.49px;}.a79d89c1-310e-41f3-a76a-8a9f53673049{clip-path:url(#b089a437-81a5-4611-a826-b1d07e8d6ba4);}.e3ab9505-c146-4127-830f-0d17ce613473{clip-path:url(#bba79057-f832-4439-a0ba-a2632ba12028);}.a00f680d-2138-4ba7-9ce9-da2ac2ef6565{stroke-width:1.43px;}.ed52d906-72ec-4c6e-bc27-7371fc85bc10{fill:#efefef;}.bf576903-a892-40d8-8c92-d1201a0a53fe{clip-path:url(#a4c1bee2-de2b-4851-af5b-cd6d0479406d);}.fada4555-11ee-424d-b586-d90af0ee6563{stroke-width:0.75px;}.abeba260-f958-4bff-8cd1-6fb3c86132e0{fill:#e1e1e1;}.ef658ffe-5e04-4502-a646-b672320a0c2a{fill:#2c9643;}.f6437c1e-28cb-4c31-94e6-7d31765c4c40{fill:#eee;}.ac2b0ff0-8865-412f-bd21-d49b2179fe8c{stroke-width:1.5px;}.b58b6a4a-a9e7-439c-88eb-c3aa6e0749f7{fill:#111;}.b97f64dc-d74d-45c7-a2fb-e0756fb01b96{fill:#16326f;}.e05eabad-3aca-414b-a462-19dfe3be1c31{fill:#dedede;}.a1a3e316-1625-4095-bf5b-37688c5a599d{fill:#b2b2b2;}.f7fc6b7b-ec28-4008-b6e9-8ac7a6598fa2{stroke-width:1.59px;}.a27cc708-c710-4920-a37c-39f353d82671{clip-path:url(#b1575fa4-a32a-40e8-80c9-9f44d0d92f06);}.b934df07-071c-42c4-b677-08e97ac5c50b{stroke-width:1.78px;}.b4035f70-dc67-419e-8693-bd1f85a637d4{stroke-width:1.4px;}.af205118-49e7-4d5a-bbce-a275dc36bf84{stroke-width:1.27px;}.bc017803-4f68-4c16-a9a2-53c17e6f1a26{stroke-width:1.25px;}.eb37417d-81cf-4c1f-9188-74dbc4a23541{stroke-width:1.26px;}.afdb60dc-c36f-4553-a1e0-7d88c02afb4b{clip-path:url(#eac208a3-e520-4f8f-b992-83dc08dd68c2);}.a5ce48c7-afb9-4bf9-ab5f-79a766e84672{stroke-width:1.55px;}.f04b359b-91bf-4edb-a2fd-541bc7eec3b5{stroke-width:3px;}</style><clipPath id="acfb53c1-e723-4401-9ec6-90daca21d735"><rect height="38.39" width="29.22" y="111.5" x="157.51" class="a81b03a2-96e9-403d-8aa6-8b00ea41346b"></rect></clipPath><clipPath id="b089a437-81a5-4611-a826-b1d07e8d6ba4"><path d="M56.15,110.94a3.6,3.6,0,0,1-1.07,1.61c-1.13.87-3.63,4.57-1.91,6.81s21-5.94,21-5.94l-4.67-3s-7.71-.25-11.62-.58h-.14a1.65,1.65,0,0,0-1.57,1.09" class="eb1ab612-23fb-4bce-8e99-60816e93abfd"></path></clipPath><clipPath id="bba79057-f832-4439-a0ba-a2632ba12028"><path d="M71.72,114.15,56.47,125.61a2.2,2.2,0,0,0-.87,1.84c.08,1.6,3.68,4.35,6.7,5.51a2.14,2.14,0,0,0,2.54-.87c2.28-3.5,8.69-13,12.39-15.35s-2.64-2.6-4.83-2.6h-.68" class="eb1ab612-23fb-4bce-8e99-60816e93abfd"></path></clipPath><clipPath id="a4c1bee2-de2b-4851-af5b-cd6d0479406d"><path d="M98.51,157C101,179.51,120.09,195,143.23,195c24.85,0,45-17.15,45-42,0-1.56-.35-4-.5-5.5Z" class="eb1ab612-23fb-4bce-8e99-60816e93abfd"></path></clipPath><clipPath id="b1575fa4-a32a-40e8-80c9-9f44d0d92f06"><path d="M79.73,112.23c-.64,10.2,28.42,17.58,41.85,20.44a21,21,0,0,0,13-1.4c10.79-4.85,31.32-15.22,28.66-22.79C160,99.39,142.32,95.05,124,95.05c-21.4,0-43.59,5.93-44.29,17.18" class="eb1ab612-23fb-4bce-8e99-60816e93abfd"></path></clipPath><clipPath id="eac208a3-e520-4f8f-b992-83dc08dd68c2"><rect height="7.76" width="10.88" y="76.41" x="126.21" class="eb1ab612-23fb-4bce-8e99-60816e93abfd"></rect></clipPath></defs><title>缺省页小爱</title><g id="ae1c46b7-80a4-417d-bc6a-00cfa591ca0e"><path d="M68,107s-23.5,88.5,59,78c0,0,39.5-1.5,44.5-50.5.79-7.74-2-19-7.5-27.5Z" class="a81b03a2-96e9-403d-8aa6-8b00ea41346b"></path></g><g id="a8e07b64-7ef5-4bc2-ac8f-606f69f77636"><path d="M140,230h0a4.75,4.75,0,0,1-4.75-4.75V212h9.5v13.25A4.75,4.75,0,0,1,140,230" class="b07d885f-20bf-4e30-8971-9b4165c938df"></path><path d="M140,230h0a4.75,4.75,0,0,1-4.75-4.75V212h9.5v13.25A4.75,4.75,0,0,1,140,230Z" class="a51deec0-71f4-4b96-936b-bcd70b2a493c"></path><path d="M201,188h0a4.25,4.25,0,0,1-4.25-4.25V163h8.5v20.75A4.25,4.25,0,0,1,201,188" class="b07d885f-20bf-4e30-8971-9b4165c938df"></path><path d="M201,188h0a4.25,4.25,0,0,1-4.25-4.25V163h8.5v20.75A4.25,4.25,0,0,1,201,188Z" class="a829514d-9fcb-41ed-91d1-dc9bb558dd9f"></path><path d="M64,195h0a3.75,3.75,0,0,1-3.75-3.75V170h7.5v21.25A3.75,3.75,0,0,1,64,195" class="b07d885f-20bf-4e30-8971-9b4165c938df"></path><path d="M64,195h0a3.75,3.75,0,0,1-3.75-3.75V170h7.5v21.25A3.75,3.75,0,0,1,64,195Z" class="a1aac63c-7996-4c9d-8246-39ad3da5e58d"></path><path d="M57,102.82S33.23,104,29.23,126c-3.4,18.69,29.18,78.48,109,92.49a11.64,11.64,0,0,0,6.1-.58c11.46-4.26,54.9-23,66.36-51.26,1.06-2.62-.41-5.65-1.41-7.65-.91-1.81-4-2.38-6.76-3.94C172.32,138,86.18,93.72,57,102.82" class="fd98046b-1640-4481-a5c4-93aec9a9e2e8"></path><path d="M57,102.82S33.23,104,29.23,126c-3.4,18.69,29.18,78.48,109,92.49a11.64,11.64,0,0,0,6.1-.58c11.46-4.26,54.9-23,66.36-51.26,1.06-2.62-.41-5.65-1.41-7.65-.91-1.81-4-2.38-6.76-3.94C172.32,138,86.18,93.72,57,102.82Z" class="a51deec0-71f4-4b96-936b-bcd70b2a493c"></path><path d="M58,96.82S34.23,98,30.23,120c-3.4,18.69,29.18,78.48,109,92.49a11.64,11.64,0,0,0,6.1-.58c11.46-4.26,51.9-21,63.36-49.26a5.77,5.77,0,0,0-2.4-7.08C185.51,143,89.83,86.89,58,96.82" class="a81b03a2-96e9-403d-8aa6-8b00ea41346b"></path><path d="M58,96.82S34.23,98,30.23,120c-3.4,18.69,29.18,78.48,109,92.49a11.64,11.64,0,0,0,6.1-.58c11.46-4.26,51.9-21,63.36-49.26a5.77,5.77,0,0,0-2.4-7.08C185.51,143,89.83,86.89,58,96.82Z" class="a51deec0-71f4-4b96-936b-bcd70b2a493c"></path><rect height="38.39" width="29.22" y="111.5" x="157.51" class="a81b03a2-96e9-403d-8aa6-8b00ea41346b"></rect><g class="b2ad367a-da54-4e6d-904a-a6b96253c83e"><rect height="38.39" width="29.22" y="111.5" x="157.51" class="a81b03a2-96e9-403d-8aa6-8b00ea41346b"></rect><g class="b2ad367a-da54-4e6d-904a-a6b96253c83e"><path d="M168.38,111.78l-10.87,9.7a52.27,52.27,0,0,0,6,17l0,0c5-10,17-10,17-10l.11-.07c-4.55-6.58-10.29-13-12.24-16.63" class="a81b03a2-96e9-403d-8aa6-8b00ea41346b"></path><path d="M168.33,111.5c-1.27.2-9,1.73-10.82,10l10.87-9.7Z" class="a81b03a2-96e9-403d-8aa6-8b00ea41346b"></path><path d="M163.51,138.48l0,0c6.17,10.61,15.05,14.3,21,9,4.74-4.21,1.16-11.75-3.89-19.07l-.11.07s-12,0-17,10" class="a81b03a2-96e9-403d-8aa6-8b00ea41346b"></path></g></g><path d="M168.38,111.78c2,3.64,7.69,10,12.24,16.63,5,7.32,8.63,14.86,3.89,19.07-6,5.32-14.87,1.63-21-9a52.27,52.27,0,0,1-6-17" class="f21d60c5-e35c-42b6-b9ff-bf3918accfed"></path><path d="M180.51,128.48s-12,0-17,10" class="a51deec0-71f4-4b96-936b-bcd70b2a493c"></path><path d="M140.76,184.82c-1,5.71-15.29,8-31.87,5s-29.2-10-28.19-15.68,15.28-7.95,31.87-5,29.2,10,28.19,15.68" class="fd98046b-1640-4481-a5c4-93aec9a9e2e8"></path><path d="M68.23,108s-23.5,88.5,59,78c0,0,39.5-1.5,44.5-50.5.79-7.74-2-19-7.5-27.5Z" class="f57387ad-e395-4daf-8b78-398d81704c56"></path><path d="M69.48,110.43s-7.71-.25-11.62-.58a1.67,1.67,0,0,0-1.71,1.09,3.6,3.6,0,0,1-1.07,1.61c-1.12.86-3.63,4.57-1.91,6.81s21-5.94,21-5.94Z" class="fd98046b-1640-4481-a5c4-93aec9a9e2e8"></path><g class="a79d89c1-310e-41f3-a76a-8a9f53673049"><path d="M61.73,108.48a5,5,0,1,1-5-5,5,5,0,0,1,5,5" class="a81b03a2-96e9-403d-8aa6-8b00ea41346b"></path><path d="M63.73,117.48a5,5,0,1,1,5,5,5,5,0,0,1-5-5" class="a81b03a2-96e9-403d-8aa6-8b00ea41346b"></path></g><g class="e3ab9505-c146-4127-830f-0d17ce613473"><path d="M57.73,135.48a10,10,0,1,1,10,10,10,10,0,0,1-10-10" class="a81b03a2-96e9-403d-8aa6-8b00ea41346b"></path><path d="M72.73,115.48a5,5,0,1,1-5-5,5,5,0,0,1,5,5" class="a81b03a2-96e9-403d-8aa6-8b00ea41346b"></path></g><path d="M71.72,114.15,56.47,125.61a2.2,2.2,0,0,0-.87,1.84c.08,1.6,3.68,4.36,6.7,5.51a2.14,2.14,0,0,0,2.54-.87c2.28-3.5,8.69-13,12.39-15.35C81.78,113.87,71.72,114.15,71.72,114.15Z" class="a00f680d-2138-4ba7-9ce9-da2ac2ef6565"></path><path d="M186,179.87c1.26,3.93-7.44,10.23-19.43,14.08s-22.73,3.79-24-.13S150,183.59,162,179.74s22.73-3.79,24,.13" class="fd98046b-1640-4481-a5c4-93aec9a9e2e8"></path><path d="M187.73,147.48c.15,1.51.5,4,.5,5.5,0,24.85-20.15,42-45,42C120.09,195,101,179.51,98.51,157" class="ed52d906-72ec-4c6e-bc27-7371fc85bc10"></path><g class="bf576903-a892-40d8-8c92-d1201a0a53fe"><path d="M107.23,161s-1.58,13.28,4,17c6,4,5,11,5,11l10,7,3-1s2-13-6-19c-6.25-4.69-2.69-14.28-2.69-14.28Z" class="fada4555-11ee-424d-b586-d90af0ee6563"></path><path d="M136.72,161.26s-5.49,9.72-.49,15.72,4,19,4,19,12.32,3.19,13-1c1.93-11.84-3.19-17.68-5-22-1.39-3.33-1-12,2-14s-13.51,2.28-13.51,2.28" class="fada4555-11ee-424d-b586-d90af0ee6563"></path><path d="M163.23,157a19.16,19.16,0,0,0,0,18c5,10,4,20,3,21s15-12,15-12-6-8-6-16a75.68,75.68,0,0,1,2-16Z" class="fada4555-11ee-424d-b586-d90af0ee6563"></path><path d="M107.23,161s-1.58,13.28,4,17c6,4,5,11,5,11l10,7,3-1s2-13-6-19c-6.25-4.69-2.69-14.28-2.69-14.28Z" class="abeba260-f958-4bff-8cd1-6fb3c86132e0"></path><path d="M136.72,161.26s-5.49,9.72-.49,15.72,4,19,4,19,12.32,3.19,13-1c1.93-11.84-3.19-17.68-5-22-1.39-3.33-1-12,2-14s-13.51,2.28-13.51,2.28" class="abeba260-f958-4bff-8cd1-6fb3c86132e0"></path><path d="M163.23,157a19.16,19.16,0,0,0,0,18c5,10,4,20,3,21s15-12,15-12-6-8-6-16a75.68,75.68,0,0,1,2-16Z" class="abeba260-f958-4bff-8cd1-6fb3c86132e0"></path><path d="M185.23,145s-4,13-2,24,3,9,3,9l2-9,5-12s-2-9-2-10-6-2-6-2" class="abeba260-f958-4bff-8cd1-6fb3c86132e0"></path><path d="M185.23,145s-4,13-2,24,3,9,3,9l2-9,5-12s-2-9-2-10S185.23,145,185.23,145Z" class="fada4555-11ee-424d-b586-d90af0ee6563"></path></g><path d="M187.73,147.48c.15,1.51.5,4,.5,5.5,0,24.85-20.15,42-45,42C120.09,195,101,179.51,98.51,157" class="a51deec0-71f4-4b96-936b-bcd70b2a493c"></path><line y2="146.98" x2="188.23" y1="157.04" x1="98.51" class="ef658ffe-5e04-4502-a646-b672320a0c2a"></line><line y2="146.98" x2="188.23" y1="157.04" x1="98.51" class="a51deec0-71f4-4b96-936b-bcd70b2a493c"></line><path d="M188,148.28c.61,6.65-19.07,13.89-44,16.17s-45.55-1.26-46.16-7.91,19.07-13.89,44-16.17,45.55,1.26,46.16,7.91" class="f6437c1e-28cb-4c31-94e6-7d31765c4c40"></path><path d="M188,148.28c.61,6.65-19.07,13.89-44,16.17s-45.55-1.26-46.16-7.91,19.07-13.89,44-16.17S187.38,141.63,188,148.28Z" class="ac2b0ff0-8865-412f-bd21-d49b2179fe8c"></path><path d="M178.58,149.06c.41,4.44-15.22,9.51-34.91,11.31s-36-.33-36.39-4.77,15.22-9.51,34.91-11.32,36,.34,36.39,4.78" class="a81b03a2-96e9-403d-8aa6-8b00ea41346b"></path><path d="M132.23,157.34c-1,.56-2,.62-2.23.14s.27-1.32,1.23-1.87,2-.61,2.23-.13-.27,1.31-1.23,1.86" class="b58b6a4a-a9e7-439c-88eb-c3aa6e0749f7"></path><path d="M123.23,157.34c-1,.56-2,.62-2.23.14s.27-1.32,1.23-1.87,2-.61,2.23-.13-.27,1.31-1.23,1.86" class="b97f64dc-d74d-45c7-a2fb-e0756fb01b96"></path><path d="M135.23,150.34c-1,.56-2,.62-2.23.14s.27-1.32,1.23-1.87,2-.61,2.23-.13-.27,1.31-1.23,1.86" class="b97f64dc-d74d-45c7-a2fb-e0756fb01b96"></path><path d="M140.73,155.84c-1,.56-2,.62-2.23.14s.27-1.32,1.23-1.87,2-.61,2.23-.13-.27,1.31-1.23,1.86" class="b97f64dc-d74d-45c7-a2fb-e0756fb01b96"></path><path d="M149.73,155.84c-1,.56-2,.62-2.23.14s.27-1.32,1.23-1.87,2-.61,2.23-.13-.27,1.31-1.23,1.86" class="b97f64dc-d74d-45c7-a2fb-e0756fb01b96"></path><path d="M150.73,149.84c-1,.56-2,.62-2.23.14s.27-1.32,1.23-1.87,2-.61,2.23-.13-.27,1.31-1.23,1.86" class="b97f64dc-d74d-45c7-a2fb-e0756fb01b96"></path><path d="M159.73,149.84c-1,.56-2,.62-2.23.14s.27-1.32,1.23-1.87,2-.61,2.23-.13-.27,1.31-1.23,1.86" class="b97f64dc-d74d-45c7-a2fb-e0756fb01b96"></path><path d="M159.73,155.84c-1,.56-2,.62-2.23.14s.27-1.32,1.23-1.87,2-.61,2.23-.13-.27,1.31-1.23,1.86" class="b97f64dc-d74d-45c7-a2fb-e0756fb01b96"></path><path d="M168.73,151.84c-1,.56-2,.62-2.23.14s.27-1.32,1.23-1.87,2-.61,2.23-.13-.27,1.31-1.23,1.86" class="b97f64dc-d74d-45c7-a2fb-e0756fb01b96"></path><path d="M143.73,149.84c-1,.56-2,.62-2.23.14s.27-1.32,1.23-1.87,2-.61,2.23-.13-.27,1.31-1.23,1.86" class="b97f64dc-d74d-45c7-a2fb-e0756fb01b96"></path><path d="M127.23,151.34c-1,.56-2,.62-2.23.14s.27-1.32,1.23-1.87,2-.61,2.23-.13-.27,1.31-1.23,1.86" class="b58b6a4a-a9e7-439c-88eb-c3aa6e0749f7"></path><path d="M117.23,153.34c-1,.56-2,.62-2.23.14s.27-1.32,1.23-1.87,2-.61,2.23-.13-.27,1.31-1.23,1.86" class="b58b6a4a-a9e7-439c-88eb-c3aa6e0749f7"></path><path d="M137.23,156c0,1.66-2.46,3-5.5,3s-5.5-1.34-5.5-3,2.46-3,5.5-3,5.5,1.34,5.5,3" class="e05eabad-3aca-414b-a462-19dfe3be1c31"></path><path d="M124.72,149.94l2.29-2.49-16.36-15.22a1.6,1.6,0,0,0-2.25.1l-.13.14a1.59,1.59,0,0,0,.09,2.25Z" class="a1a3e316-1625-4095-bf5b-37688c5a599d"></path><path d="M124.72,149.94l2.29-2.49-16.36-15.22a1.6,1.6,0,0,0-2.25.1l-.13.14a1.59,1.59,0,0,0,.09,2.25Z" class="f7fc6b7b-ec28-4008-b6e9-8ac7a6598fa2"></path><path d="M126.17,155.11c2.78,2.56,6.4,3.15,8.09,1.32s.8-5.4-2-8-6.4-3.15-8.09-1.32-.8,5.39,2,8" class="a1a3e316-1625-4095-bf5b-37688c5a599d"></path><path d="M126.17,155.11c2.78,2.56,6.4,3.15,8.09,1.32s.8-5.4-2-8-6.4-3.15-8.09-1.32S123.38,152.54,126.17,155.11Z" class="f7fc6b7b-ec28-4008-b6e9-8ac7a6598fa2"></path><path d="M81.24,128.77a26.78,26.78,0,0,0,21.57,10.6,35.45,35.45,0,0,0,8.12-.85c19.63-4.27,16.38,23.42-9.64,23.23-1,0-2.08-.05-3.17-.14a39.37,39.37,0,0,1-26.57-13.77" class="ee326411-f671-4071-a309-6e92bf6d72f8"></path><path d="M102.8,139.9s-7.71,10.88-1.5,21.39" class="f21d60c5-e35c-42b6-b9ff-bf3918accfed"></path><path d="M79.73,112.22c-.64,10.21,28.42,17.59,41.85,20.45a21,21,0,0,0,13-1.4c10.79-4.85,31.32-15.22,28.66-22.79C156.31,88.76,81,91.37,79.73,112.22" class="ed52d906-72ec-4c6e-bc27-7371fc85bc10"></path><g class="a27cc708-c710-4920-a37c-39f353d82671"><path d="M99.41,118.59c0,3.31-4.76,6-10.64,6s-10.64-2.69-10.64-6,4.77-6,10.64-6,10.64,2.68,10.64,6" class="a81b03a2-96e9-403d-8aa6-8b00ea41346b"></path><path d="M123.87,116c0,2.69-3.57,4.87-8,4.87s-8-2.18-8-4.87,3.57-4.87,8-4.87,8,2.18,8,4.87" class="a81b03a2-96e9-403d-8aa6-8b00ea41346b"></path><path d="M146.21,111.48c0,2.27-2.62,4.12-5.85,4.12s-5.85-1.85-5.85-4.12,2.62-4.13,5.85-4.13,5.85,1.85,5.85,4.13" class="a81b03a2-96e9-403d-8aa6-8b00ea41346b"></path><path d="M147.27,121.22c0-3.11,3.58-5.62,8-5.62s8,2.51,8,5.62-3.57,5.62-8,5.62-8-2.52-8-5.62" class="a81b03a2-96e9-403d-8aa6-8b00ea41346b"></path><path d="M142,120.84c0,1.24-1.43,2.25-3.19,2.25s-3.2-1-3.2-2.25,1.43-2.25,3.2-2.25,3.19,1,3.19,2.25" class="a81b03a2-96e9-403d-8aa6-8b00ea41346b"></path><path d="M132.38,129.46c0,2.69-3.09,4.87-6.91,4.87s-6.92-2.18-6.92-4.87,3.1-4.87,6.92-4.87,6.91,2.18,6.91,4.87" class="a81b03a2-96e9-403d-8aa6-8b00ea41346b"></path><path d="M112.17,126.09c0,2.07-2.38,3.74-5.32,3.74s-5.32-1.67-5.32-3.74,2.39-3.75,5.32-3.75,5.32,1.68,5.32,3.75" class="a81b03a2-96e9-403d-8aa6-8b00ea41346b"></path><path d="M133,118.82c-.18,1.08-1.57,1.86-3.1,1.73s-2.63-1.1-2.45-2.19,1.57-1.85,3.1-1.72,2.63,1.1,2.45,2.18" class="a81b03a2-96e9-403d-8aa6-8b00ea41346b"></path></g><path d="M79.73,112.22c-.64,10.21,28.42,17.59,41.85,20.45a21,21,0,0,0,13-1.4c10.79-4.85,31.32-15.22,28.66-22.79C156.31,88.76,81,91.37,79.73,112.22Z" class="b934df07-071c-42c4-b677-08e97ac5c50b"></path><path d="M72.39,40.85l-13,16.43a4.48,4.48,0,0,0-.94,2.9L60.26,103a4.83,4.83,0,0,0,2.4,3.85l13.25,9.25Z" class="a81b03a2-96e9-403d-8aa6-8b00ea41346b"></path><path d="M72.39,40.85l-13,16.43a4.48,4.48,0,0,0-.94,2.9L60.26,103a4.83,4.83,0,0,0,2.4,3.85l13.25,9.25Z" class="b4035f70-dc67-419e-8693-bd1f85a637d4"></path><path d="M95,23.14a10.83,10.83,0,0,0,18.92,6.74l.37,9,3-.12h0l3-.12-.37-9a10.83,10.83,0,1,0-3.33-7.38A10.83,10.83,0,0,0,95,23.14m25.82-1.06a6.64,6.64,0,1,1,6.91,6.36,6.64,6.64,0,0,1-6.91-6.36M99.17,23a6.64,6.64,0,1,1,6.91,6.36A6.64,6.64,0,0,1,99.17,23" class="b97f64dc-d74d-45c7-a2fb-e0756fb01b96"></path><path d="M172.74,86.52l1.1,0A3.36,3.36,0,0,0,177,83l-.73-17.9a3.37,3.37,0,0,0-3.48-3.21l-1.1,0a3.35,3.35,0,0,0-3.2,3.48l.73,17.9a3.35,3.35,0,0,0,3.48,3.2" class="a81b03a2-96e9-403d-8aa6-8b00ea41346b"></path><path d="M172.74,86.52l1.1,0A3.36,3.36,0,0,0,177,83l-.73-17.9a3.37,3.37,0,0,0-3.48-3.21l-1.1,0a3.35,3.35,0,0,0-3.2,3.48l.73,17.9A3.35,3.35,0,0,0,172.74,86.52Z" class="af205118-49e7-4d5a-bbce-a275dc36bf84"></path><path d="M178.43,78.86h0a1.56,1.56,0,0,0,1.49-1.62l-.28-6.64a1.55,1.55,0,1,0-3.1.13l.27,6.64a1.55,1.55,0,0,0,1.62,1.49" class="a81b03a2-96e9-403d-8aa6-8b00ea41346b"></path><path d="M178.43,78.86h0a1.56,1.56,0,0,0,1.49-1.62l-.28-6.64a1.55,1.55,0,1,0-3.1.13l.27,6.64A1.55,1.55,0,0,0,178.43,78.86Z" class="af205118-49e7-4d5a-bbce-a275dc36bf84"></path><path d="M172.74,86.52l1.1,0A3.36,3.36,0,0,0,177,83l-.73-17.9a3.37,3.37,0,0,0-3.48-3.21l-1.1,0a3.35,3.35,0,0,0-3.2,3.48l.73,17.9A3.35,3.35,0,0,0,172.74,86.52Z" class="af205118-49e7-4d5a-bbce-a275dc36bf84"></path><path d="M178.43,78.86h0a1.56,1.56,0,0,0,1.49-1.62l-.28-6.64a1.55,1.55,0,1,0-3.1.13l.27,6.64A1.55,1.55,0,0,0,178.43,78.86Z" class="af205118-49e7-4d5a-bbce-a275dc36bf84"></path><path d="M96.51,22.18a10.82,10.82,0,0,0,18.92,6.74l.37,9,3-.13,3-.12-.37-9a10.83,10.83,0,1,0-3.33-7.38,10.83,10.83,0,0,0-21.64.89m25.82-1.06a6.64,6.64,0,1,1,6.91,6.36,6.64,6.64,0,0,1-6.91-6.36M100.69,22a6.64,6.64,0,1,1,6.91,6.36A6.65,6.65,0,0,1,100.69,22" class="a81b03a2-96e9-403d-8aa6-8b00ea41346b"></path><path d="M96.51,22.18a10.82,10.82,0,0,0,18.92,6.74l.37,9,3-.13,3-.12-.37-9a10.83,10.83,0,1,0-3.33-7.38,10.83,10.83,0,0,0-21.64.89Zm25.82-1.06a6.64,6.64,0,1,1,6.91,6.36A6.64,6.64,0,0,1,122.33,21.12ZM100.69,22a6.64,6.64,0,1,1,6.91,6.36A6.65,6.65,0,0,1,100.69,22Z" class="af205118-49e7-4d5a-bbce-a275dc36bf84"></path><path d="M99.56,75.51a.89.89,0,0,0,.93.85.89.89,0,0,0-.07-1.78.89.89,0,0,0-.86.93" class="a81b03a2-96e9-403d-8aa6-8b00ea41346b"></path><path d="M78.24,116.82,170,113.05a3.75,3.75,0,0,0,3.58-3.88L170.71,39.3a3.75,3.75,0,0,0-3.89-3.58L75.06,39.49a3.75,3.75,0,0,0-3.58,3.89l2.87,69.86a3.74,3.74,0,0,0,3.89,3.58" class="a81b03a2-96e9-403d-8aa6-8b00ea41346b"></path><path d="M78.24,116.82,170,113.05a3.75,3.75,0,0,0,3.58-3.88L170.71,39.3a3.75,3.75,0,0,0-3.89-3.58L75.06,39.49a3.75,3.75,0,0,0-3.58,3.89l2.87,69.86A3.74,3.74,0,0,0,78.24,116.82Z" class="bc017803-4f68-4c16-a9a2-53c17e6f1a26"></path><path d="M87.2,43.4l39.63,5.52a2.27,2.27,0,0,0,.9,0l33.12-8.5c1.66-.4,3.25,1.06,3.33,3,0,0,1.55,16,2.55,29.05.77,10-.16,29.11-.16,29.11.08,2-1.38,3.58-3.06,3.32L129.8,99.18a2.27,2.27,0,0,0-.9,0l-39.05,8.73c-1.66.39-3.25-1.07-3.33-3.06,0,0-2.79-19.4-3.08-28.4-.36-11,.69-29.76.69-29.76-.08-2,1.38-3.58,3.07-3.32" class="a81b03a2-96e9-403d-8aa6-8b00ea41346b"></path><path d="M87.2,43.4l39.63,5.52a2.27,2.27,0,0,0,.9,0l33.12-8.5c1.66-.4,3.25,1.06,3.33,3,0,0,1.55,16,2.55,29.05.77,10-.16,29.11-.16,29.11.08,2-1.38,3.58-3.06,3.32L129.8,99.18a2.27,2.27,0,0,0-.9,0l-39.05,8.73c-1.66.39-3.25-1.07-3.33-3.06,0,0-2.79-19.4-3.08-28.4-.36-11,.69-29.76.69-29.76C84.05,44.73,85.51,43.14,87.2,43.4Z" class="eb37417d-81cf-4c1f-9188-74dbc4a23541"></path><g class="afdb60dc-c36f-4553-a1e0-7d88c02afb4b"><g class="afdb60dc-c36f-4553-a1e0-7d88c02afb4b"><path d="M136.09,81.37c-3.29,5.49-8.91,1.22-8.91,1.22l-1-.37.78-3a6.15,6.15,0,0,1,8.91-1.59l1.2,2.93Z" class="a81b03a2-96e9-403d-8aa6-8b00ea41346b"></path></g></g><path d="M127.18,82.59s5.62,4.27,8.91-1.22" class="a5ce48c7-afb9-4bf9-ab5f-79a766e84672"></path><path d="M121.92,78.61s10.07,2.31,3.23,11.32" class="a5ce48c7-afb9-4bf9-ab5f-79a766e84672"></path><path d="M139.35,75.3S131,81.05,141.44,87" class="a5ce48c7-afb9-4bf9-ab5f-79a766e84672"></path><path d="M101.73,68.48s6,0,12.5.5" class="f04b359b-91bf-4edb-a2fd-541bc7eec3b5"></path><path d="M153.23,67s-6.5.5-12,1" class="f04b359b-91bf-4edb-a2fd-541bc7eec3b5"></path><path d="M107.23,68.23c0,.41-.78.75-1.75.75s-1.75-.34-1.75-.75.78-.75,1.75-.75,1.75.33,1.75.75" class="a81b03a2-96e9-403d-8aa6-8b00ea41346b"></path><path d="M147.23,67.23c0,.41-.78.75-1.75.75s-1.75-.34-1.75-.75.78-.75,1.75-.75,1.75.33,1.75.75" class="a81b03a2-96e9-403d-8aa6-8b00ea41346b"></path><path d="M66.83,90.87l-1.1,0a3.35,3.35,0,0,1-3.47-3.2l-.74-17.91a3.36,3.36,0,0,1,3.2-3.48l1.1,0a3.36,3.36,0,0,1,3.48,3.2L70,87.4a3.35,3.35,0,0,1-3.2,3.47" class="a81b03a2-96e9-403d-8aa6-8b00ea41346b"></path><path d="M66.83,90.87l-1.1,0a3.35,3.35,0,0,1-3.47-3.2l-.74-17.91a3.36,3.36,0,0,1,3.2-3.48l1.1,0a3.36,3.36,0,0,1,3.48,3.2L70,87.4A3.35,3.35,0,0,1,66.83,90.87Z" class="af205118-49e7-4d5a-bbce-a275dc36bf84"></path><path d="M63.09,83.6h0a1.55,1.55,0,0,1-1.62-1.49l-.27-6.65a1.56,1.56,0,0,1,3.11-.12L64.58,82a1.56,1.56,0,0,1-1.49,1.62" class="a81b03a2-96e9-403d-8aa6-8b00ea41346b"></path><path d="M63.09,83.6h0a1.55,1.55,0,0,1-1.62-1.49l-.27-6.65a1.56,1.56,0,0,1,3.11-.12L64.58,82A1.56,1.56,0,0,1,63.09,83.6Z" class="af205118-49e7-4d5a-bbce-a275dc36bf84"></path><path d="M111.71,78.13c.09,1.22-3,2.44-7,2.73s-7.25-.45-7.34-1.67,3-2.43,7-2.72,7.25.45,7.34,1.66" class="fd98046b-1640-4481-a5c4-93aec9a9e2e8"></path><path d="M161.87,74.43c.09,1.22-3.06,2.44-7,2.73s-7.25-.46-7.34-1.67,3.05-2.43,7-2.73,7.25.46,7.34,1.67" class="fd98046b-1640-4481-a5c4-93aec9a9e2e8"></path><path d="M106.73,116.12c3.93.7,7.81,1.5,11.72,2.13,2,.33,3.91.58,5.87.77a24.35,24.35,0,0,0,5.91,0,16.43,16.43,0,0,1-5.95.82,40.09,40.09,0,0,1-6-.57,57.55,57.55,0,0,1-11.56-3.11" class="b97f64dc-d74d-45c7-a2fb-e0756fb01b96"></path><path d="M121.6,124.9c1.2-.13,2.4-.27,3.58-.47s2.38-.37,3.55-.63a50.58,50.58,0,0,0,6.9-1.89,31,31,0,0,0,6.42-3,20.68,20.68,0,0,0,5.18-4.88,16,16,0,0,1-2,3l-.61.69c-.21.22-.46.41-.68.62-.47.39-.91.83-1.41,1.18a25.23,25.23,0,0,1-6.52,3.37,39.41,39.41,0,0,1-14.37,2" class="b97f64dc-d74d-45c7-a2fb-e0756fb01b96"></path><path d="M115.75,83.82c-.56,1.26-1.64,2-2.41,1.65s-.94-1.63-.38-2.89,1.64-2,2.4-1.65.94,1.64.39,2.89" class="f6437c1e-28cb-4c31-94e6-7d31765c4c40"></path><path d="M124.39,94.7c.45.94.35,1.92-.23,2.2s-1.4-.27-1.85-1.2-.34-1.92.23-2.19,1.4.26,1.85,1.19" class="f6437c1e-28cb-4c31-94e6-7d31765c4c40"></path><path d="M148.39,88.7c.45.94.35,1.92-.23,2.2s-1.4-.27-1.85-1.2-.34-1.92.23-2.19,1.4.26,1.85,1.19" class="f6437c1e-28cb-4c31-94e6-7d31765c4c40"></path></g></svg>