<svg viewBox="0 0 240 240" xmlns:xlink="http://www.w3.org/1999/xlink" xmlns="http://www.w3.org/2000/svg"><defs><style>.a00a09d2-baea-425d-8161-6b16451eb712,.a3024c43-71d7-4cf1-ad72-c8277d56178b,.a8efc47e-b918-4318-bc8a-0d5c37becb19,.b1e616aa-78e2-4c92-a1ad-503aba08b5f0,.b286b6dd-078c-4848-8308-b917ad39f0b1,.bc1c980b-3521-45be-83f9-0e34184c56a5,.e12b9467-f5d0-49f1-9686-427a10a3a371,.eb50ded6-69c4-4d26-8f9d-b5efdb9c5ff6,.f7e9660a-3b8e-4d09-9fc8-71e639ecf899,.f81bf7cf-2071-461e-a43c-2a6106364a91,.fb3c3146-630c-4dc5-8174-c8b82d3a05de,.fcf2082b-e09c-40da-9967-878e17586a2d{fill:none;}.ed3168dd-2970-448e-b29a-b045f40c01d4{fill:#eee;}.f0668e56-a285-4464-8444-2aecf95f1d06{fill:#fff;}.a00a09d2-baea-425d-8161-6b16451eb712,.a3024c43-71d7-4cf1-ad72-c8277d56178b,.a8efc47e-b918-4318-bc8a-0d5c37becb19,.b1e616aa-78e2-4c92-a1ad-503aba08b5f0,.b286b6dd-078c-4848-8308-b917ad39f0b1,.e12b9467-f5d0-49f1-9686-427a10a3a371,.eb50ded6-69c4-4d26-8f9d-b5efdb9c5ff6,.f7e9660a-3b8e-4d09-9fc8-71e639ecf899,.f81bf7cf-2071-461e-a43c-2a6106364a91,.fb3c3146-630c-4dc5-8174-c8b82d3a05de,.fcf2082b-e09c-40da-9967-878e17586a2d{stroke:#16326f;}.a8efc47e-b918-4318-bc8a-0d5c37becb19,.b1e616aa-78e2-4c92-a1ad-503aba08b5f0,.b286b6dd-078c-4848-8308-b917ad39f0b1,.eb50ded6-69c4-4d26-8f9d-b5efdb9c5ff6,.f7e9660a-3b8e-4d09-9fc8-71e639ecf899,.f81bf7cf-2071-461e-a43c-2a6106364a91,.fb3c3146-630c-4dc5-8174-c8b82d3a05de{stroke-linecap:round;stroke-linejoin:round;}.fb3c3146-630c-4dc5-8174-c8b82d3a05de,.fcf2082b-e09c-40da-9967-878e17586a2d{stroke-width:1.49px;}.a00a09d2-baea-425d-8161-6b16451eb712,.a3024c43-71d7-4cf1-ad72-c8277d56178b,.e12b9467-f5d0-49f1-9686-427a10a3a371,.fcf2082b-e09c-40da-9967-878e17586a2d{stroke-miterlimit:10;}.e6e89315-aed2-4071-bbc3-5d14bf33c98c{fill:#f0f0f0;}.a00a09d2-baea-425d-8161-6b16451eb712{stroke-width:1.86px;}.e12b9467-f5d0-49f1-9686-427a10a3a371{stroke-width:1.5px;}.a8efc47e-b918-4318-bc8a-0d5c37becb19{stroke-width:1.54px;}.f81bf7cf-2071-461e-a43c-2a6106364a91{stroke-width:1.64px;}.f7e9660a-3b8e-4d09-9fc8-71e639ecf899{stroke-width:1.53px;}.eb50ded6-69c4-4d26-8f9d-b5efdb9c5ff6{stroke-width:1.62px;}.f90f4d83-3494-4548-9609-25f9c2f531d0{fill:#ededed;}.b286b6dd-078c-4848-8308-b917ad39f0b1{stroke-width:2.19px;}.f4fabf0e-015f-4c90-bcfb-e351101bb5bc{clip-path:url(#b6f5d305-c6fd-4042-9d24-204f023b7198);}.a3024c43-71d7-4cf1-ad72-c8277d56178b{stroke-width:1.72px;}.fce3820f-0d69-4e20-b99e-43feb7cc8d38{fill:#16326f;}.b70c6876-cdb7-47a1-b69c-1211956111c3{clip-path:url(#f130ea07-e0a0-459a-b84c-c7c757fd0042);}.b1e616aa-78e2-4c92-a1ad-503aba08b5f0{stroke-width:2px;}.fe5b8eb3-30a8-4e37-8210-dac860cf236e{fill:#dedede;}</style><clipPath id="b6f5d305-c6fd-4042-9d24-204f023b7198"><rect height="20" width="21" y="83.43" x="86.22" class="bc1c980b-3521-45be-83f9-0e34184c56a5"></rect></clipPath><clipPath id="f130ea07-e0a0-459a-b84c-c7c757fd0042"><rect height="20" width="21" y="83.43" x="133.22" class="bc1c980b-3521-45be-83f9-0e34184c56a5"></rect></clipPath></defs><title>缺省页小爱</title><g id="acb2509a-1f59-44a2-86e4-29769e5aa925"><path d="M148.29,220c0,3.25-13.32,5.88-29.75,5.88S88.79,223.22,88.79,220s13.32-5.89,29.75-5.89,29.75,2.64,29.75,5.89" class="ed3168dd-2970-448e-b29a-b045f40c01d4"></path></g><g id="fab1905a-e9b4-40d1-9f9d-40ddbe96825a"><path d="M132.93,24.87a12.7,12.7,0,0,0-12.7,12.7h0a12.71,12.71,0,1,0-3.55,8.81V56.91h7.11V46.38a12.7,12.7,0,1,0,9.15-21.51M107.52,45.36a7.79,7.79,0,1,1,7.79-7.79,7.79,7.79,0,0,1-7.79,7.79m25.41,0a7.79,7.79,0,1,1,7.79-7.79,7.79,7.79,0,0,1-7.79,7.79" class="f0668e56-a285-4464-8444-2aecf95f1d06"></path><path d="M132.93,24.87a12.7,12.7,0,0,0-12.7,12.7h0a12.71,12.71,0,1,0-3.55,8.81V56.91h7.11V46.38a12.7,12.7,0,1,0,9.15-21.51ZM107.52,45.36a7.79,7.79,0,1,1,7.79-7.79A7.79,7.79,0,0,1,107.52,45.36Zm25.41,0a7.79,7.79,0,1,1,7.79-7.79A7.79,7.79,0,0,1,132.93,45.36Z" class="fb3c3146-630c-4dc5-8174-c8b82d3a05de"></path><path d="M144.62,102.23a1,1,0,1,1-1-1,1,1,0,0,1,1,1" class="f0668e56-a285-4464-8444-2aecf95f1d06"></path><path d="M121.39,215.13h-2.71A41.23,41.23,0,0,1,77.58,174V147.81H162.5V174a41.23,41.23,0,0,1-41.11,41.11" class="f0668e56-a285-4464-8444-2aecf95f1d06"></path><path d="M121.39,215.13h-2.71A41.23,41.23,0,0,1,77.58,174V147.81H162.5V174A41.23,41.23,0,0,1,121.39,215.13Z" class="fcf2082b-e09c-40da-9967-878e17586a2d"></path><path d="M112.16,157.48q-1.95,13.74-3.91,27.48L120,196.62,131.82,185l-3.9-27.48" class="f0668e56-a285-4464-8444-2aecf95f1d06"></path><path d="M112.16,157.48q-1.95,13.74-3.91,27.48L120,196.62,131.82,185l-3.9-27.48" class="fcf2082b-e09c-40da-9967-878e17586a2d"></path><path d="M146.5,182.43c0,8.84-11.64,16-26,16s-26-7.16-26-16,11.64-16,26-16,26,7.16,26,16" class="e6e89315-aed2-4071-bbc3-5d14bf33c98c"></path><ellipse ry="16" rx="26" cy="182.43" cx="120.5" class="a00a09d2-baea-425d-8161-6b16451eb712"></ellipse><path d="M114.53,182.43c0,2.13-2.26,3.85-5.06,3.85s-5.07-1.72-5.07-3.85,2.27-3.85,5.07-3.85,5.06,1.72,5.06,3.85" class="f0668e56-a285-4464-8444-2aecf95f1d06"></path><ellipse ry="3.85" rx="5.07" cy="182.43" cx="109.47" class="e12b9467-f5d0-49f1-9686-427a10a3a371"></ellipse><path d="M136.59,182.43c0,2.13-2.26,3.85-5.06,3.85s-5.07-1.72-5.07-3.85,2.27-3.85,5.07-3.85,5.06,1.72,5.06,3.85" class="f0668e56-a285-4464-8444-2aecf95f1d06"></path><ellipse ry="3.85" rx="5.07" cy="182.43" cx="131.53" class="e12b9467-f5d0-49f1-9686-427a10a3a371"></ellipse><path d="M72.5,143.43c6.5,2,9.75,9.82,9.81,18.07l-.08,0c2,6.16,6.07,6.91,10.33,8l0,.15c-10.86.09-13.7,15.1-8.33,23l-.12.67a57.53,57.53,0,0,1-6.66-2.11c-9.92-4.91-18.88-16.82-17.3-29.9a40,40,0,0,1,.81-7.08,39.07,39.07,0,0,1,2-6.73h0c2.57-1.8,7.2-4.29,9.5-4.12" class="f0668e56-a285-4464-8444-2aecf95f1d06"></path><path d="M101.56,174.57c5.57,7.05-1,18-8.3,19.06a22.54,22.54,0,0,1-9.17-.26l.12-.67c-5.37-7.95-2.53-23,8.33-23l0-.16c3.11.78,6.35,1.73,9,5.08" class="f0668e56-a285-4464-8444-2aecf95f1d06"></path><rect height="50.56" width="43.68" y="143.42" x="59.95" class="bc1c980b-3521-45be-83f9-0e34184c56a5"></rect><rect height="50.56" width="43.68" y="143.42" x="59.95" class="bc1c980b-3521-45be-83f9-0e34184c56a5"></rect><path d="M82.22,161.5l0,0c2,6.16,6.06,6.91,10.32,8,3.11.78,6.35,1.73,9,5.08,5.57,7.05-1,18-8.3,19.06a22.54,22.54,0,0,1-9.17-.26,57.53,57.53,0,0,1-6.66-2.11c-9.92-4.91-18.88-16.82-17.3-29.9a41,41,0,0,1,.81-7.08,39.07,39.07,0,0,1,2-6.73" class="a8efc47e-b918-4318-bc8a-0d5c37becb19"></path><path d="M84.21,192.7c-5.37-7.95-2.53-23,8.33-23" class="f81bf7cf-2071-461e-a43c-2a6106364a91"></path><path d="M177.33,147.54c-2.53-1.8-7.57-4.28-9.83-4.11-6.4,2-9.12,9.79-9.17,18l.08,0c-2,6.16-6,6.9-10.16,7.95l0,.16c10.7.11,13.51,15.12,8.23,23.06l.13.66a54.58,54.58,0,0,0,6.55-2.09c9.76-4.9,18.57-16.8,17-29.88a40.94,40.94,0,0,0-.8-7.08,39,39,0,0,0-2-6.73Z" class="f0668e56-a285-4464-8444-2aecf95f1d06"></path><path d="M139.4,174.52c-5.48,7,1,18,8.19,19.07a21.75,21.75,0,0,0,9-.26l-.13-.66c5.28-7.94,2.47-22.95-8.23-23.06l0-.16c-3.06.77-6.25,1.73-8.85,5.07" class="f0668e56-a285-4464-8444-2aecf95f1d06"></path><rect height="50.52" width="43" y="143.42" x="137.36" class="bc1c980b-3521-45be-83f9-0e34184c56a5"></rect><rect height="50.52" width="43" y="143.42" x="137.36" class="bc1c980b-3521-45be-83f9-0e34184c56a5"></rect><path d="M158.42,161.47s0,0,0,0c-2,6.16-6,6.9-10.16,7.95-3.06.77-6.25,1.73-8.85,5.07-5.48,7,1,18,8.19,19.07a21.75,21.75,0,0,0,9-.26,54.58,54.58,0,0,0,6.55-2.09c9.76-4.9,18.57-16.8,17-29.88a40.94,40.94,0,0,0-.8-7.08,39,39,0,0,0-2-6.73" class="f7e9660a-3b8e-4d09-9fc8-71e639ecf899"></path><path d="M156.5,192.67c5.28-7.94,2.47-22.95-8.23-23.06" class="eb50ded6-69c4-4d26-8f9d-b5efdb9c5ff6"></path><path d="M110.72,147.81l-7.5,11-25.64-11" class="f0668e56-a285-4464-8444-2aecf95f1d06"></path><path d="M110.72,147.81l-7.5,11-25.64-11" class="fb3c3146-630c-4dc5-8174-c8b82d3a05de"></path><polyline points="129.36 147.81 136.85 158.82 162.5 147.81" class="f0668e56-a285-4464-8444-2aecf95f1d06"></polyline><polyline points="129.36 147.81 136.85 158.82 162.5 147.81" class="fb3c3146-630c-4dc5-8174-c8b82d3a05de"></polyline><path d="M176.5,147.64H64a4.49,4.49,0,0,1-4.48-4.48V61.31A4.49,4.49,0,0,1,64,56.83H176.5A4.49,4.49,0,0,1,181,61.31v81.85a4.49,4.49,0,0,1-4.47,4.48" class="f0668e56-a285-4464-8444-2aecf95f1d06"></path><rect rx="4.48" height="90.81" width="121.5" y="56.83" x="59.48" class="fcf2082b-e09c-40da-9967-878e17586a2d"></rect><path d="M64,147.64a4.59,4.59,0,0,1-3.17-1.32,4.46,4.46,0,0,1-1.31-3.16V61.31A4.49,4.49,0,0,1,64,56.83H176.5A4.49,4.49,0,0,1,181,61.31v81.85a4.49,4.49,0,0,1-4.47,4.48" class="fcf2082b-e09c-40da-9967-878e17586a2d"></path><path d="M164,64.35l-43.27,8.38a3.2,3.2,0,0,1-1.07,0L76.42,64.35c-2-.39-3.81,1.4-3.81,3.74v68.29c0,2.34,1.81,4.13,3.8,3.74l43.28-8.34a2.75,2.75,0,0,1,1.07,0L164,140.12c2,.39,3.8-1.4,3.8-3.74V68.09c0-2.34-1.82-4.13-3.81-3.74" class="f0668e56-a285-4464-8444-2aecf95f1d06"></path><path d="M164,64.35l-43.27,8.38a3.2,3.2,0,0,1-1.07,0L76.42,64.35c-2-.39-3.81,1.4-3.81,3.74v68.29c0,2.34,1.81,4.13,3.8,3.74l43.28-8.34a2.75,2.75,0,0,1,1.07,0L164,140.12c2,.39,3.8-1.4,3.8-3.74V68.09C167.84,65.75,166,64,164,64.35Z" class="fcf2082b-e09c-40da-9967-878e17586a2d"></path><path d="M185.08,116.67h1.29a3.93,3.93,0,0,0,3.92-3.92v-21a3.93,3.93,0,0,0-3.92-3.92h-1.29a3.94,3.94,0,0,0-3.92,3.92v21a3.94,3.94,0,0,0,3.92,3.92" class="f0668e56-a285-4464-8444-2aecf95f1d06"></path><rect rx="3.92" height="28.87" width="9.13" y="87.8" x="181.16" class="fb3c3146-630c-4dc5-8174-c8b82d3a05de"></rect><path d="M192.12,108h0a1.83,1.83,0,0,0,1.82-1.82V98.33a1.83,1.83,0,0,0-3.65,0v7.81a1.83,1.83,0,0,0,1.83,1.82" class="f0668e56-a285-4464-8444-2aecf95f1d06"></path><path d="M192.12,108h0a1.83,1.83,0,0,0,1.82-1.82V98.33a1.83,1.83,0,0,0-3.65,0v7.81A1.83,1.83,0,0,0,192.12,108Z" class="fb3c3146-630c-4dc5-8174-c8b82d3a05de"></path><path d="M55.37,116.67H54.08a3.93,3.93,0,0,1-3.92-3.92v-21a3.93,3.93,0,0,1,3.92-3.92h1.29a3.94,3.94,0,0,1,3.92,3.92v21a3.94,3.94,0,0,1-3.92,3.92" class="f0668e56-a285-4464-8444-2aecf95f1d06"></path><rect rx="3.92" height="28.87" width="9.13" y="87.8" x="50.16" class="fb3c3146-630c-4dc5-8174-c8b82d3a05de"></rect><path d="M48.33,108h0a1.83,1.83,0,0,1-1.82-1.82V98.33a1.83,1.83,0,0,1,3.65,0v7.81A1.83,1.83,0,0,1,48.33,108" class="f0668e56-a285-4464-8444-2aecf95f1d06"></path><path d="M48.33,108h0a1.83,1.83,0,0,1-1.82-1.82V98.33a1.83,1.83,0,0,1,3.65,0v7.81A1.83,1.83,0,0,1,48.33,108Z" class="fb3c3146-630c-4dc5-8174-c8b82d3a05de"></path><rect rx="3.92" height="28.87" width="9.13" y="87.8" x="50.16" class="fb3c3146-630c-4dc5-8174-c8b82d3a05de"></rect><path d="M48.33,108h0a1.83,1.83,0,0,1-1.82-1.82V98.33a1.83,1.83,0,0,1,3.65,0v7.81A1.83,1.83,0,0,1,48.33,108Z" class="fb3c3146-630c-4dc5-8174-c8b82d3a05de"></path><rect rx="3.92" height="28.87" width="9.13" y="87.8" x="181.16" class="fb3c3146-630c-4dc5-8174-c8b82d3a05de"></rect><path d="M192.12,108h0a1.83,1.83,0,0,0,1.82-1.82V98.33a1.83,1.83,0,0,0-3.65,0v7.81A1.83,1.83,0,0,0,192.12,108Z" class="fb3c3146-630c-4dc5-8174-c8b82d3a05de"></path><path d="M129.36,147.81l-1.44,9.67H112.16l-1.44-9.67" class="f0668e56-a285-4464-8444-2aecf95f1d06"></path><path d="M129.36,147.81l-1.44,9.67H112.16l-1.44-9.67" class="fb3c3146-630c-4dc5-8174-c8b82d3a05de"></path><path d="M98.45,105.52c0,1.48-3.9,2.67-8.72,2.67S81,107,81,105.52s3.91-2.67,8.73-2.67,8.72,1.19,8.72,2.67" class="f90f4d83-3494-4548-9609-25f9c2f531d0"></path><path d="M159.45,105.52c0,1.48-3.9,2.67-8.72,2.67S142,107,142,105.52s3.91-2.67,8.73-2.67,8.72,1.19,8.72,2.67" class="f90f4d83-3494-4548-9609-25f9c2f531d0"></path><path d="M115.5,108.43s.84-9,6.23-9c4,0,5,8.4,5,8.4" class="b286b6dd-078c-4848-8308-b917ad39f0b1"></path><g class="f4fabf0e-015f-4c90-bcfb-e351101bb5bc"><g class="f4fabf0e-015f-4c90-bcfb-e351101bb5bc"><path d="M96.72,83.43a10.25,10.25,0,0,1,10.5,10,8.7,8.7,0,0,1-.08,1.26,163.78,163.78,0,0,1-20.83,0,8.69,8.69,0,0,1-.09-1.26,10.26,10.26,0,0,1,10.5-10" class="f0668e56-a285-4464-8444-2aecf95f1d06"></path><path d="M86.31,94.68a162.88,162.88,0,0,0,20.83,0,10.57,10.57,0,0,1-20.83,0" class="f0668e56-a285-4464-8444-2aecf95f1d06"></path></g></g><path d="M86.31,94.68a8.45,8.45,0,0,1-.09-1.25,10.51,10.51,0,0,1,21,0,8.7,8.7,0,0,1-.08,1.26,10.57,10.57,0,0,1-20.83,0Z" class="a3024c43-71d7-4cf1-ad72-c8277d56178b"></path><path d="M86.31,94.68a162.88,162.88,0,0,0,20.83,0h.08" class="a3024c43-71d7-4cf1-ad72-c8277d56178b"></path><path d="M102.23,99.93a2.5,2.5,0,1,1-2.5-2.5,2.5,2.5,0,0,1,2.5,2.5" class="fce3820f-0d69-4e20-b99e-43feb7cc8d38"></path><g class="b70c6876-cdb7-47a1-b69c-1211956111c3"><g class="b70c6876-cdb7-47a1-b69c-1211956111c3"><path d="M143.72,83.43a10.26,10.26,0,0,0-10.5,10,8.69,8.69,0,0,0,.09,1.26,163.78,163.78,0,0,0,20.83,0,8.7,8.7,0,0,0,.08-1.26,10.25,10.25,0,0,0-10.5-10" class="f0668e56-a285-4464-8444-2aecf95f1d06"></path><path d="M154.14,94.68a162.88,162.88,0,0,1-20.83,0,10.57,10.57,0,0,0,20.83,0" class="f0668e56-a285-4464-8444-2aecf95f1d06"></path></g></g><path d="M154.14,94.68a8.47,8.47,0,0,0,.08-1.25,10.51,10.51,0,0,0-21,0,8.69,8.69,0,0,0,.09,1.26,10.57,10.57,0,0,0,20.83,0Z" class="a3024c43-71d7-4cf1-ad72-c8277d56178b"></path><path d="M154.14,94.68a162.88,162.88,0,0,1-20.83,0h-.09" class="a3024c43-71d7-4cf1-ad72-c8277d56178b"></path><path d="M138.23,99.93a2.5,2.5,0,1,0,2.5-2.5,2.5,2.5,0,0,0-2.5,2.5" class="fce3820f-0d69-4e20-b99e-43feb7cc8d38"></path><line y2="85.93" x2="110.23" y1="79.93" x1="102.23" class="b1e616aa-78e2-4c92-a1ad-503aba08b5f0"></line><line y2="85.93" x2="130.23" y1="79.93" x1="138.23" class="b1e616aa-78e2-4c92-a1ad-503aba08b5f0"></line><path d="M225.32,159.32h0l-12.75-7c-3.36-1.84-6.75-3.65-10.13-5.46l7.33-3.56c3.35-1.64,6.71-3.27,10-4.95l.06,0a1.26,1.26,0,0,0-.49-2.38c-3.91-.27-7.82-.57-11.74-.8-3.54-.22-7.08-.44-10.62-.63q3.72-5,7.34-10.09-4.56,5.08-9,10.26a.55.55,0,0,0-.14.32.61.61,0,0,0,.52.69h0c3.89.52,7.79,1,11.68,1.45,2.35.29,4.71.55,7.06.81l-6,2.74c-3.39,1.56-6.79,3.11-10.16,4.7a1.55,1.55,0,0,0-.08,2.76c4.26,2.32,8.5,4.67,12.77,7l7.61,4.08-7.39.09-13.31.28h-.07a1.18,1.18,0,0,0-.4.1,1.05,1.05,0,0,0-.53,1.39c1.75,3.87,3.49,7.75,5.27,11.61q-6.39-.75-12.8-1.37c4.58,1,9.16,1.9,13.75,2.76a.66.66,0,0,0,.34,0,.64.64,0,0,0,.37-.81l0,0c-1.41-3.82-2.88-7.62-4.34-11.42l11.74.24,13.32.17a1.52,1.52,0,0,0,.74-2.85Z" class="fe5b8eb3-30a8-4e37-8210-dac860cf236e"></path><path d="M43.05,161.06a1.12,1.12,0,0,0,.09-.41,1.06,1.06,0,0,0-1-1.08h-.06l-13.31-.28-7.39-.09L29,155.12c4.27-2.29,8.51-4.64,12.76-7a1.54,1.54,0,0,0-.07-2.76c-3.37-1.59-6.77-3.14-10.16-4.7l-6-2.74c2.36-.26,4.72-.52,7.07-.81,3.89-.47,7.79-.93,11.68-1.45h0a.7.7,0,0,0,.32-.14.63.63,0,0,0,.06-.87q-4.44-5.17-9-10.26,3.63,5.08,7.34,10.09c-3.54.19-7.08.41-10.62.63-3.92.23-7.83.53-11.75.8a1.26,1.26,0,0,0-.48,2.38l.06,0c3.33,1.68,6.69,3.31,10,4.95l7.33,3.56c-3.38,1.81-6.77,3.62-10.13,5.46l-12.75,7h0a1.52,1.52,0,0,0,.75,2.85L28.74,162l11.74-.24c-1.46,3.8-2.93,7.6-4.34,11.42l0,0a.61.61,0,0,0,0,.33.63.63,0,0,0,.74.5c4.59-.86,9.17-1.79,13.75-2.76q-6.42.62-12.8,1.37C39.56,168.81,41.3,164.93,43.05,161.06Z" class="fe5b8eb3-30a8-4e37-8210-dac860cf236e"></path></g></svg>